<?xml version="1.0" encoding="UTF-8"?>
<!DOCTYPE svg PUBLIC "-//W3C//DTD SVG 1.1//EN" "http://www.w3.org/Graphics/SVG/1.1/DTD/svg11.dtd">
<svg xmlns="http://www.w3.org/2000/svg" version="1.1" width="1540px" height="342px" style="shape-rendering:geometricPrecision; text-rendering:geometricPrecision; image-rendering:optimizeQuality; fill-rule:evenodd; clip-rule:evenodd" xmlns:xlink="http://www.w3.org/1999/xlink">
<g><path style="opacity:0.996" fill="#f5f5f5" d="M 1108.5,12.5 C 1152.5,12.5 1196.5,12.5 1240.5,12.5C 1240.5,33.1667 1240.5,53.8333 1240.5,74.5C 1196.5,74.6667 1152.5,74.5 1108.5,74C 1107.17,53.5 1107.17,33 1108.5,12.5 Z M 1111.5,16.5 C 1153.17,16.5 1194.83,16.5 1236.5,16.5C 1236.5,34.5 1236.5,52.5 1236.5,70.5C 1194.83,70.5 1153.17,70.5 1111.5,70.5C 1111.5,52.5 1111.5,34.5 1111.5,16.5 Z"/></g>
<g><path style="opacity:0.56" fill="#e3e3e3" d="M 1093.5,15.5 C 1049.83,15.5 1006.17,15.5 962.5,15.5C 962.5,35.8333 962.5,56.1667 962.5,76.5C 961.503,56.0067 961.169,35.3401 961.5,14.5C 1005.67,14.168 1049.67,14.5013 1093.5,15.5 Z"/></g>
<g><path style="opacity:0.88" fill="#f9f9f9" d="M 821.5,14.5 C 865.5,14.5 909.5,14.5 953.5,14.5C 953.5,35.1667 953.5,55.8333 953.5,76.5C 909.5,76.5 865.5,76.5 821.5,76.5C 821.5,55.8333 821.5,35.1667 821.5,14.5 Z M 824.5,17.5 C 866.153,18.4543 907.82,18.7876 949.5,18.5C 949.249,36.8537 949.582,55.1871 950.5,73.5C 908.5,73.5 866.5,73.5 824.5,73.5C 824.5,54.8333 824.5,36.1667 824.5,17.5 Z"/></g>
<g><path style="opacity:0.904" fill="#f5f5f5" d="M 1093.5,15.5 C 1093.5,35.8333 1093.5,56.1667 1093.5,76.5C 1049.83,76.5 1006.17,76.5 962.5,76.5C 962.5,56.1667 962.5,35.8333 962.5,15.5C 1006.17,15.5 1049.83,15.5 1093.5,15.5 Z M 965.5,18.5 C 1006.83,18.5 1048.17,18.5 1089.5,18.5C 1089.25,36.8537 1089.58,55.1871 1090.5,73.5C 1048.83,73.5 1007.17,73.5 965.5,73.5C 965.5,55.1667 965.5,36.8333 965.5,18.5 Z"/></g>
<g><path style="opacity:1" fill="#fefefe" d="M 540.5,16.5 C 584.5,16.5 628.5,16.5 672.5,16.5C 672.5,36.8333 672.5,57.1667 672.5,77.5C 628.5,77.5 584.5,77.5 540.5,77.5C 540.5,57.1667 540.5,36.8333 540.5,16.5 Z M 543.5,19.5 C 585.5,19.5 627.5,19.5 669.5,19.5C 669.5,37.8333 669.5,56.1667 669.5,74.5C 627.5,74.5 585.5,74.5 543.5,74.5C 543.5,56.1667 543.5,37.8333 543.5,19.5 Z"/></g>
<g><path style="opacity:0.931" fill="#fefefe" d="M 681.5,16.5 C 725.167,16.5 768.833,16.5 812.5,16.5C 812.5,36.8333 812.5,57.1667 812.5,77.5C 768.5,77.5 724.5,77.5 680.5,77.5C 680.179,57.0909 680.512,36.7576 681.5,16.5 Z M 683.5,19.5 C 725.5,19.5 767.5,19.5 809.5,19.5C 809.5,37.8333 809.5,56.1667 809.5,74.5C 767.5,74.5 725.5,74.5 683.5,74.5C 683.5,56.1667 683.5,37.8333 683.5,19.5 Z"/></g>
<g><path style="opacity:0.975" fill="#f5f5f5" d="M 154.5,32.5 C 264.833,32.5 375.167,32.5 485.5,32.5C 485.5,71.5 485.5,110.5 485.5,149.5C 809.5,149.333 1133.5,149.5 1457.5,150C 1434.02,205.126 1410.69,260.293 1387.5,315.5C 972.499,315.833 557.499,315.5 142.5,314.5C 118.312,259.799 94.9787,204.799 72.5,149.5C 99.8333,149.5 127.167,149.5 154.5,149.5C 154.5,110.5 154.5,71.5 154.5,32.5 Z M 481.5,36.5 C 481.5,73.8333 481.5,111.167 481.5,148.5C 390.833,148.5 300.167,148.5 209.5,148.5C 192.163,148.696 174.83,149.029 157.5,149.5C 157.5,111.5 157.5,73.5 157.5,35.5C 265.492,36.4743 373.492,36.8077 481.5,36.5 Z M 138.5,152.5 C 174.833,152.5 211.167,152.5 247.5,152.5C 247.5,205.833 247.5,259.167 247.5,312.5C 213.832,312.667 180.165,312.5 146.5,312C 123.538,259.611 100.872,207.111 78.5,154.5C 98.5,153.833 118.5,153.167 138.5,152.5 Z M 251.5,152.5 C 593.5,152.5 935.5,152.5 1277.5,152.5C 1277.5,205.833 1277.5,259.167 1277.5,312.5C 935.5,312.5 593.5,312.5 251.5,312.5C 251.5,259.167 251.5,205.833 251.5,152.5 Z M 1281.5,152.5 C 1338.18,152.207 1394.85,152.873 1451.5,154.5C 1428.87,206.75 1406.54,259.083 1384.5,311.5C 1350.17,312.239 1315.84,312.572 1281.5,312.5C 1281.5,259.167 1281.5,205.833 1281.5,152.5 Z M 262.5,175.5 C 304.5,175.5 346.5,175.5 388.5,175.5C 388.5,193.833 388.5,212.167 388.5,230.5C 346.5,230.5 304.5,230.5 262.5,230.5C 262.5,212.167 262.5,193.833 262.5,175.5 Z M 403.5,175.5 C 445.167,175.5 486.833,175.5 528.5,175.5C 528.5,193.833 528.5,212.167 528.5,230.5C 486.833,230.5 445.167,230.5 403.5,230.5C 403.5,212.167 403.5,193.833 403.5,175.5 Z M 543.5,175.5 C 585.167,175.5 626.833,175.5 668.5,175.5C 668.5,193.833 668.5,212.167 668.5,230.5C 626.833,230.5 585.167,230.5 543.5,230.5C 543.5,212.167 543.5,193.833 543.5,175.5 Z M 729.5,175.5 C 756.167,175.5 782.833,175.5 809.5,175.5C 809.5,193.833 809.5,212.167 809.5,230.5C 767.5,230.5 725.5,230.5 683.5,230.5C 683.559,212.494 683.892,194.494 684.5,176.5C 699.676,176.829 714.676,176.496 729.5,175.5 Z M 824.5,175.5 C 866.153,176.454 907.82,176.788 949.5,176.5C 949.25,194.52 949.584,212.52 950.5,230.5C 908.5,230.5 866.5,230.5 824.5,230.5C 824.5,212.167 824.5,193.833 824.5,175.5 Z M 965.5,175.5 C 1007.17,175.5 1048.83,175.5 1090.5,175.5C 1090.5,193.833 1090.5,212.167 1090.5,230.5C 1048.83,230.5 1007.17,230.5 965.5,230.5C 965.5,212.167 965.5,193.833 965.5,175.5 Z M 1117.5,175.5 C 1159.5,175.5 1201.5,175.5 1243.5,175.5C 1243.5,193.833 1243.5,212.167 1243.5,230.5C 1201.5,230.5 1159.5,230.5 1117.5,230.5C 1117.5,212.167 1117.5,193.833 1117.5,175.5 Z M 1111.5,251.5 C 1153.17,251.5 1194.83,251.5 1236.5,251.5C 1236.5,269.833 1236.5,288.167 1236.5,306.5C 1194.83,306.5 1153.17,306.5 1111.5,306.5C 1111.5,288.167 1111.5,269.833 1111.5,251.5 Z M 262.5,252.5 C 304.5,252.5 346.5,252.5 388.5,252.5C 388.5,270.833 388.5,289.167 388.5,307.5C 346.5,307.5 304.5,307.5 262.5,307.5C 262.5,289.167 262.5,270.833 262.5,252.5 Z M 543.5,252.5 C 585.167,252.5 626.833,252.5 668.5,252.5C 668.5,270.833 668.5,289.167 668.5,307.5C 626.833,307.5 585.167,307.5 543.5,307.5C 543.5,289.167 543.5,270.833 543.5,252.5 Z M 684.5,252.5 C 726.167,252.5 767.833,252.5 809.5,252.5C 809.5,270.833 809.5,289.167 809.5,307.5C 767.833,307.5 726.167,307.5 684.5,307.5C 684.5,289.167 684.5,270.833 684.5,252.5 Z M 824.5,252.5 C 866.167,252.5 907.833,252.5 949.5,252.5C 949.5,270.833 949.5,289.167 949.5,307.5C 907.833,307.5 866.167,307.5 824.5,307.5C 824.5,289.167 824.5,270.833 824.5,252.5 Z M 965.5,252.5 C 1007.17,252.5 1048.83,252.5 1090.5,252.5C 1090.5,270.833 1090.5,289.167 1090.5,307.5C 1048.83,307.5 1007.17,307.5 965.5,307.5C 965.5,289.167 965.5,270.833 965.5,252.5 Z M 403.5,252.5 C 445.167,252.5 486.833,252.5 528.5,252.5C 528.5,270.833 528.5,289.167 528.5,307.5C 486.833,307.5 445.167,307.5 403.5,307.5C 403.5,289.167 403.5,270.833 403.5,252.5 Z"/></g>
<g><path style="opacity:0.839" fill="#f0f0f0" d="M 1108.5,82.5 C 1152.5,82.5 1196.5,82.5 1240.5,82.5C 1240.5,103.167 1240.5,123.833 1240.5,144.5C 1196.5,144.667 1152.5,144.5 1108.5,144C 1107.17,123.5 1107.17,103 1108.5,82.5 Z M 1111.5,85.5 C 1153.15,86.4543 1194.82,86.7876 1236.5,86.5C 1236.5,104.5 1236.5,122.5 1236.5,140.5C 1194.82,140.231 1153.16,140.564 1111.5,141.5C 1111.5,122.833 1111.5,104.167 1111.5,85.5 Z"/></g>
<g><path style="opacity:0.947" fill="#fcfcfc" d="M 821.5,85.5 C 865.5,85.5 909.5,85.5 953.5,85.5C 953.5,105.833 953.5,126.167 953.5,146.5C 909.5,146.5 865.5,146.5 821.5,146.5C 821.5,126.167 821.5,105.833 821.5,85.5 Z M 824.5,88.5 C 866.167,88.5 907.833,88.5 949.5,88.5C 949.5,106.833 949.5,125.167 949.5,143.5C 907.833,143.5 866.167,143.5 824.5,143.5C 824.5,125.167 824.5,106.833 824.5,88.5 Z"/></g>
<g><path style="opacity:0.932" fill="#fbfbfb" d="M 962.5,85.5 C 1006.17,85.5 1049.83,85.5 1093.5,85.5C 1093.5,105.833 1093.5,126.167 1093.5,146.5C 1049.5,146.5 1005.5,146.5 961.5,146.5C 961.179,126.091 961.512,105.758 962.5,85.5 Z M 965.5,88.5 C 1007.17,88.5 1048.83,88.5 1090.5,88.5C 1090.5,106.833 1090.5,125.167 1090.5,143.5C 1048.83,143.5 1007.17,143.5 965.5,143.5C 965.5,125.167 965.5,106.833 965.5,88.5 Z"/></g>
<g><path style="opacity:0.95" fill="#f8f8f8" d="M 540.5,86.5 C 584.5,86.5 628.5,86.5 672.5,86.5C 672.5,107.167 672.5,127.833 672.5,148.5C 628.5,148.5 584.5,148.5 540.5,148.5C 540.5,127.833 540.5,107.167 540.5,86.5 Z M 543.5,89.5 C 585.167,89.5 626.833,89.5 668.5,89.5C 668.5,107.833 668.5,126.167 668.5,144.5C 626.833,144.5 585.167,144.5 543.5,144.5C 543.5,126.167 543.5,107.833 543.5,89.5 Z"/></g>
<g><path style="opacity:0.955" fill="#f9f9f9" d="M 680.5,86.5 C 724.5,86.5 768.5,86.5 812.5,86.5C 812.5,107.167 812.5,127.833 812.5,148.5C 768.5,148.5 724.5,148.5 680.5,148.5C 680.5,127.833 680.5,107.167 680.5,86.5 Z M 683.5,89.5 C 725.5,89.5 767.5,89.5 809.5,89.5C 809.5,107.833 809.5,126.167 809.5,144.5C 767.5,144.5 725.5,144.5 683.5,144.5C 683.5,126.167 683.5,107.833 683.5,89.5 Z"/></g>
<g><path style="opacity:0.088" fill="#9c9c9c" d="M 481.5,36.5 C 482.498,73.9963 482.832,111.663 482.5,149.5C 391.332,149.833 300.332,149.499 209.5,148.5C 300.167,148.5 390.833,148.5 481.5,148.5C 481.5,111.167 481.5,73.8333 481.5,36.5 Z"/></g>
<g><path style="opacity:0.05" fill="#000000" d="M 138.5,152.5 C 118.5,153.167 98.5,153.833 78.5,154.5C 77.9569,154.44 77.6236,154.107 77.5,153.5C 97.8224,152.5 118.156,152.167 138.5,152.5 Z"/></g>
<g><path style="opacity:0.955" fill="#f8f8f8" d="M 259.5,172.5 C 303.5,172.5 347.5,172.5 391.5,172.5C 391.5,193.167 391.5,213.833 391.5,234.5C 347.5,234.5 303.5,234.5 259.5,234.5C 259.5,213.833 259.5,193.167 259.5,172.5 Z M 262.5,175.5 C 262.5,193.833 262.5,212.167 262.5,230.5C 304.5,230.5 346.5,230.5 388.5,230.5C 388.5,212.167 388.5,193.833 388.5,175.5C 346.5,175.5 304.5,175.5 262.5,175.5 Z"/></g>
<g><path style="opacity:0.929" fill="#fcfcfc" d="M 531.5,172.5 C 531.5,192.833 531.5,213.167 531.5,233.5C 487.5,233.5 443.5,233.5 399.5,233.5C 399.173,213.257 399.507,193.091 400.5,173C 444.165,172.5 487.832,172.333 531.5,172.5 Z M 403.5,175.5 C 403.5,193.833 403.5,212.167 403.5,230.5C 445.167,230.5 486.833,230.5 528.5,230.5C 528.5,212.167 528.5,193.833 528.5,175.5C 486.833,175.5 445.167,175.5 403.5,175.5 Z"/></g>
<g><path style="opacity:0.955" fill="#f7f7f7" d="M 540.5,172.5 C 584.5,172.5 628.5,172.5 672.5,172.5C 672.5,193.167 672.5,213.833 672.5,234.5C 628.5,234.5 584.5,234.5 540.5,234.5C 540.5,213.833 540.5,193.167 540.5,172.5 Z M 543.5,175.5 C 543.5,193.833 543.5,212.167 543.5,230.5C 585.167,230.5 626.833,230.5 668.5,230.5C 668.5,212.167 668.5,193.833 668.5,175.5C 626.833,175.5 585.167,175.5 543.5,175.5 Z"/></g>
<g><path style="opacity:0.945" fill="#f4f4f4" d="M 680.5,172.5 C 724.5,172.5 768.5,172.5 812.5,172.5C 812.5,193.167 812.5,213.833 812.5,234.5C 768.5,234.5 724.5,234.5 680.5,234.5C 680.5,213.833 680.5,193.167 680.5,172.5 Z M 729.5,175.5 C 714.676,176.496 699.676,176.829 684.5,176.5C 683.892,194.494 683.559,212.494 683.5,230.5C 725.5,230.5 767.5,230.5 809.5,230.5C 809.5,212.167 809.5,193.833 809.5,175.5C 782.833,175.5 756.167,175.5 729.5,175.5 Z"/></g>
<g><path style="opacity:0.965" fill="#eeeeee" d="M 820.5,172.5 C 864.833,172.5 909.167,172.5 953.5,172.5C 953.5,193.167 953.5,213.833 953.5,234.5C 909.832,234.667 866.165,234.5 822.5,234C 822,233.5 821.5,233 821,232.5C 820.5,212.503 820.333,192.503 820.5,172.5 Z M 824.5,175.5 C 824.5,193.833 824.5,212.167 824.5,230.5C 866.5,230.5 908.5,230.5 950.5,230.5C 949.584,212.52 949.25,194.52 949.5,176.5C 907.82,176.788 866.153,176.454 824.5,175.5 Z"/></g>
<g><path style="opacity:0.96" fill="#fefefe" d="M 962.5,172.5 C 1006.17,172.5 1049.83,172.5 1093.5,172.5C 1093.5,192.833 1093.5,213.167 1093.5,233.5C 1049.83,233.5 1006.17,233.5 962.5,233.5C 962.5,213.167 962.5,192.833 962.5,172.5 Z M 965.5,175.5 C 965.5,193.833 965.5,212.167 965.5,230.5C 1007.17,230.5 1048.83,230.5 1090.5,230.5C 1090.5,212.167 1090.5,193.833 1090.5,175.5C 1048.83,175.5 1007.17,175.5 965.5,175.5 Z"/></g>
<g><path style="opacity:0.984" fill="#f5f5f5" d="M 1113.5,172.5 C 1157.83,172.5 1202.17,172.5 1246.5,172.5C 1246.5,193.167 1246.5,213.833 1246.5,234.5C 1202.83,234.667 1159.17,234.5 1115.5,234C 1115,233.5 1114.5,233 1114,232.5C 1113.5,212.503 1113.33,192.503 1113.5,172.5 Z M 1117.5,175.5 C 1117.5,193.833 1117.5,212.167 1117.5,230.5C 1159.5,230.5 1201.5,230.5 1243.5,230.5C 1243.5,212.167 1243.5,193.833 1243.5,175.5C 1201.5,175.5 1159.5,175.5 1117.5,175.5 Z"/></g>
<g><path style="opacity:0.608" fill="#c4c4c4" d="M 531.5,172.5 C 532.497,192.993 532.831,213.66 532.5,234.5C 487.997,234.832 443.664,234.499 399.5,233.5C 443.5,233.5 487.5,233.5 531.5,233.5C 531.5,213.167 531.5,192.833 531.5,172.5 Z"/></g>
<g><path style="opacity:0.607" fill="#c4c4c4" d="M 962.5,172.5 C 962.5,192.833 962.5,213.167 962.5,233.5C 1006.17,233.5 1049.83,233.5 1093.5,233.5C 1049.67,234.499 1005.67,234.832 961.5,234.5C 961.169,213.66 961.503,192.993 962.5,172.5 Z"/></g>
<g><path style="opacity:0.928" fill="#fafafa" d="M 1108.5,248.5 C 1152.5,248.5 1196.5,248.5 1240.5,248.5C 1240.5,268.833 1240.5,289.167 1240.5,309.5C 1196.17,309.5 1151.83,309.5 1107.5,309.5C 1107.18,289.091 1107.51,268.758 1108.5,248.5 Z M 1111.5,251.5 C 1111.5,269.833 1111.5,288.167 1111.5,306.5C 1153.17,306.5 1194.83,306.5 1236.5,306.5C 1236.5,288.167 1236.5,269.833 1236.5,251.5C 1194.83,251.5 1153.17,251.5 1111.5,251.5 Z"/></g>
<g><path style="opacity:1" fill="#fbfbfb" d="M 259.5,249.5 C 303.5,249.5 347.5,249.5 391.5,249.5C 391.5,270.167 391.5,290.833 391.5,311.5C 347.5,311.5 303.5,311.5 259.5,311.5C 259.5,290.833 259.5,270.167 259.5,249.5 Z M 262.5,252.5 C 262.5,270.833 262.5,289.167 262.5,307.5C 304.5,307.5 346.5,307.5 388.5,307.5C 388.5,289.167 388.5,270.833 388.5,252.5C 346.5,252.5 304.5,252.5 262.5,252.5 Z"/></g>
<g><path style="opacity:0.975" fill="#f9f9f9" d="M 540.5,249.5 C 584.5,249.5 628.5,249.5 672.5,249.5C 672.5,270.167 672.5,290.833 672.5,311.5C 628.5,311.5 584.5,311.5 540.5,311.5C 540.5,290.833 540.5,270.167 540.5,249.5 Z M 543.5,252.5 C 543.5,270.833 543.5,289.167 543.5,307.5C 585.167,307.5 626.833,307.5 668.5,307.5C 668.5,289.167 668.5,270.833 668.5,252.5C 626.833,252.5 585.167,252.5 543.5,252.5 Z"/></g>
<g><path style="opacity:1" fill="#f9f9f9" d="M 680.5,249.5 C 724.5,249.5 768.5,249.5 812.5,249.5C 812.5,270.167 812.5,290.833 812.5,311.5C 768.5,311.5 724.5,311.5 680.5,311.5C 680.5,290.833 680.5,270.167 680.5,249.5 Z M 684.5,252.5 C 684.5,270.833 684.5,289.167 684.5,307.5C 726.167,307.5 767.833,307.5 809.5,307.5C 809.5,289.167 809.5,270.833 809.5,252.5C 767.833,252.5 726.167,252.5 684.5,252.5 Z"/></g>
<g><path style="opacity:0.983" fill="#f9f9f9" d="M 822.5,311.5 C 821.512,291.242 821.179,270.909 821.5,250.5C 865.33,249.501 909.33,249.168 953.5,249.5C 953.5,270.167 953.5,290.833 953.5,311.5C 909.833,311.5 866.167,311.5 822.5,311.5 Z M 824.5,252.5 C 824.5,270.833 824.5,289.167 824.5,307.5C 866.167,307.5 907.833,307.5 949.5,307.5C 949.5,289.167 949.5,270.833 949.5,252.5C 907.833,252.5 866.167,252.5 824.5,252.5 Z"/></g>
<g><path style="opacity:0.983" fill="#f9f9f9" d="M 962.5,249.5 C 1006.17,249.5 1049.83,249.5 1093.5,249.5C 1093.5,270.167 1093.5,290.833 1093.5,311.5C 1049.5,311.5 1005.5,311.5 961.5,311.5C 961.179,290.758 961.512,270.091 962.5,249.5 Z M 965.5,252.5 C 965.5,270.833 965.5,289.167 965.5,307.5C 1007.17,307.5 1048.83,307.5 1090.5,307.5C 1090.5,289.167 1090.5,270.833 1090.5,252.5C 1048.83,252.5 1007.17,252.5 965.5,252.5 Z"/></g>
<g><path style="opacity:0.485" fill="#c8c8c8" d="M 821.5,250.5 C 821.179,270.909 821.512,291.242 822.5,311.5C 821.168,301.689 820.501,291.523 820.5,281C 820.5,270.661 820.833,260.494 821.5,250.5 Z"/></g>
<g><path style="opacity:0.212" fill="#e8e8e8" d="M 400.5,249.5 C 400.5,269.833 400.5,290.167 400.5,310.5C 444.167,310.5 487.833,310.5 531.5,310.5C 531.5,290.167 531.5,269.833 531.5,249.5C 532.497,269.993 532.831,290.66 532.5,311.5C 488.167,311.5 443.833,311.5 399.5,311.5C 399.169,290.66 399.503,269.993 400.5,249.5 Z M 403.5,252.5 C 403.5,270.833 403.5,289.167 403.5,307.5C 445.167,307.5 486.833,307.5 528.5,307.5C 528.5,289.167 528.5,270.833 528.5,252.5C 486.833,252.5 445.167,252.5 403.5,252.5 Z"/></g>
<g><path style="opacity:0.933" fill="#fbfbfb" d="M 400.5,249.5 C 444.167,249.5 487.833,249.5 531.5,249.5C 531.5,269.833 531.5,290.167 531.5,310.5C 487.833,310.5 444.167,310.5 400.5,310.5C 400.5,290.167 400.5,269.833 400.5,249.5 Z M 403.5,252.5 C 403.5,270.833 403.5,289.167 403.5,307.5C 445.167,307.5 486.833,307.5 528.5,307.5C 528.5,289.167 528.5,270.833 528.5,252.5C 486.833,252.5 445.167,252.5 403.5,252.5 Z"/></g>
</svg>
