<?xml version="1.0" encoding="UTF-8"?>
<!DOCTYPE svg PUBLIC "-//W3C//DTD SVG 1.1//EN" "http://www.w3.org/Graphics/SVG/1.1/DTD/svg11.dtd">
<svg xmlns="http://www.w3.org/2000/svg" version="1.1" width="1584px" height="402px" style="shape-rendering:geometricPrecision; text-rendering:geometricPrecision; image-rendering:optimizeQuality; fill-rule:evenodd; clip-rule:evenodd" xmlns:xlink="http://www.w3.org/1999/xlink">
<g><path style="opacity:0.998" fill="#efefef" d="M 169.5,28.5 C 286.332,29.4995 403.332,29.8329 520.5,29.5C 520.168,71.3367 520.501,113.003 521.5,154.5C 868.514,154.171 1215.51,154.504 1562.5,155.5C 1538.58,215.411 1513.58,274.911 1487.5,334C 1260.83,334.167 1034.17,334.333 807.5,334.5C 580.833,334.167 354.167,333.833 127.5,333.5C 101.654,274.146 76.6535,214.479 52.5,154.5C 90.1667,154.5 127.833,154.5 165.5,154.5C 165.5,112.833 165.5,71.1667 165.5,29.5C 166.959,29.5674 168.292,29.2341 169.5,28.5 Z M 198.5,33.5 C 304.5,33.5 410.5,33.5 516.5,33.5C 516.168,70.6704 516.502,107.67 517.5,144.5C 517.5,147.833 517.5,151.167 517.5,154.5C 401.833,154.5 286.167,154.5 170.5,154.5C 170.5,113.833 170.5,73.1667 170.5,32.5C 179.801,33.3874 189.134,33.7208 198.5,33.5 Z M 122.5,158.5 C 162.167,158.5 201.833,158.5 241.5,158.5C 241.5,215.833 241.5,273.167 241.5,330.5C 205.165,330.667 168.832,330.5 132.5,330C 108.244,273.708 83.9105,217.542 59.5,161.5C 80.3134,159.837 101.313,158.837 122.5,158.5 Z M 245.5,158.5 C 285.833,158.5 326.167,158.5 366.5,158.5C 366.5,215.833 366.5,273.167 366.5,330.5C 326.167,330.5 285.833,330.5 245.5,330.5C 245.5,273.167 245.5,215.833 245.5,158.5 Z M 370.5,158.5 C 411.167,158.5 451.833,158.5 492.5,158.5C 492.5,215.833 492.5,273.167 492.5,330.5C 451.833,330.5 411.167,330.5 370.5,330.5C 370.5,273.167 370.5,215.833 370.5,158.5 Z M 496.5,158.5 C 536.833,158.5 577.167,158.5 617.5,158.5C 617.5,215.833 617.5,273.167 617.5,330.5C 577.167,330.5 536.833,330.5 496.5,330.5C 496.5,273.167 496.5,215.833 496.5,158.5 Z M 621.5,158.5 C 661.833,158.5 702.167,158.5 742.5,158.5C 742.5,215.833 742.5,273.167 742.5,330.5C 702.167,330.5 661.833,330.5 621.5,330.5C 621.5,273.167 621.5,215.833 621.5,158.5 Z M 747.5,158.5 C 787.833,158.5 828.167,158.5 868.5,158.5C 868.5,215.833 868.5,273.167 868.5,330.5C 828.167,330.5 787.833,330.5 747.5,330.5C 747.5,273.167 747.5,215.833 747.5,158.5 Z M 872.5,158.5 C 912.833,158.5 953.167,158.5 993.5,158.5C 993.5,215.833 993.5,273.167 993.5,330.5C 953.167,330.5 912.833,330.5 872.5,330.5C 872.5,273.167 872.5,215.833 872.5,158.5 Z M 997.5,158.5 C 1038.17,158.5 1078.83,158.5 1119.5,158.5C 1119.5,215.833 1119.5,273.167 1119.5,330.5C 1078.83,330.5 1038.17,330.5 997.5,330.5C 997.5,273.167 997.5,215.833 997.5,158.5 Z M 1123.5,158.5 C 1163.83,158.5 1204.17,158.5 1244.5,158.5C 1244.5,215.833 1244.5,273.167 1244.5,330.5C 1204.17,330.5 1163.83,330.5 1123.5,330.5C 1123.5,273.167 1123.5,215.833 1123.5,158.5 Z M 1249.5,158.5 C 1289.83,158.5 1330.17,158.5 1370.5,158.5C 1370.5,215.833 1370.5,273.167 1370.5,330.5C 1330.17,330.5 1289.83,330.5 1249.5,330.5C 1249.5,273.167 1249.5,215.833 1249.5,158.5 Z M 1499.5,158.5 C 1518.5,159.167 1537.5,159.833 1556.5,160.5C 1532.31,217.047 1507.98,273.547 1483.5,330C 1447.17,330.5 1410.83,330.667 1374.5,330.5C 1374.5,273.167 1374.5,215.833 1374.5,158.5C 1416.17,158.5 1457.83,158.5 1499.5,158.5 Z"/></g>
<g><path style="opacity:0.407" fill="#bdbdbd" d="M 169.5,28.5 C 286.833,28.5 404.167,28.5 521.5,28.5C 521.5,70.5 521.5,112.5 521.5,154.5C 520.501,113.003 520.168,71.3367 520.5,29.5C 403.332,29.8329 286.332,29.4995 169.5,28.5 Z"/></g>
<g><path style="opacity:0.137" fill="#4d4d4d" d="M 198.5,33.5 C 304.665,32.5005 410.999,32.1672 517.5,32.5C 517.5,69.8333 517.5,107.167 517.5,144.5C 516.502,107.67 516.168,70.6704 516.5,33.5C 410.5,33.5 304.5,33.5 198.5,33.5 Z"/></g>
<g><path style="opacity:0.007" fill="#000000" d="M 1583.5,84.5 C 1583.5,89.1667 1583.5,93.8333 1583.5,98.5C 1582.17,93.8333 1582.17,89.1667 1583.5,84.5 Z"/></g>
<g><path style="opacity:0.041" fill="#020202" d="M 122.5,158.5 C 101.313,158.837 80.3134,159.837 59.5,161.5C 58.596,160.791 58.2627,159.791 58.5,158.5C 79.8333,158.5 101.167,158.5 122.5,158.5 Z"/></g>
<g><path style="opacity:0.091" fill="#020202" d="M 1499.5,158.5 C 1518.84,158.167 1538.18,158.5 1557.5,159.5C 1557.38,160.107 1557.04,160.44 1556.5,160.5C 1537.5,159.833 1518.5,159.167 1499.5,158.5 Z"/></g>
</svg>
