<?xml version="1.0" encoding="UTF-8"?>
<!DOCTYPE svg PUBLIC "-//W3C//DTD SVG 1.1//EN" "http://www.w3.org/Graphics/SVG/1.1/DTD/svg11.dtd">
<svg xmlns="http://www.w3.org/2000/svg" version="1.1" width="1442px" height="344px" style="shape-rendering:geometricPrecision; text-rendering:geometricPrecision; image-rendering:optimizeQuality; fill-rule:evenodd; clip-rule:evenodd" xmlns:xlink="http://www.w3.org/1999/xlink">
<g><path style="opacity:0.997" fill="#f1f1f1" d="M 1.5,143.5 C 1.3404,141.847 0.673734,140.514 -0.5,139.5C -0.5,137.5 -0.5,135.5 -0.5,133.5C 27.5,133.5 55.5,133.5 83.5,133.5C 83.5,93.1667 83.5,52.8333 83.5,12.5C 198.167,12.5 312.833,12.5 427.5,12.5C 427.5,52.8333 427.5,93.1667 427.5,133.5C 763.517,133.17 1099.52,133.503 1435.5,134.5C 1412.15,191.873 1387.82,248.873 1362.5,305.5C 932.167,306.667 501.834,306.833 71.5,306C 47.7501,252.002 24.4168,197.835 1.5,143.5 Z M 87.5,16.5 C 199.5,16.5 311.5,16.5 423.5,16.5C 423.5,55.5 423.5,94.5 423.5,133.5C 311.5,133.5 199.5,133.5 87.5,133.5C 87.5,94.5 87.5,55.5 87.5,16.5 Z M 49.5,137.5 C 93.1667,137.5 136.833,137.5 180.5,137.5C 180.5,192.5 180.5,247.5 180.5,302.5C 145.162,302.518 109.829,302.185 74.5,301.5C 51.7363,247.649 28.7363,193.983 5.5,140.5C 19.9715,138.839 34.6382,137.839 49.5,137.5 Z M 185.5,137.5 C 256.833,137.5 328.167,137.5 399.5,137.5C 399.5,192.5 399.5,247.5 399.5,302.5C 328.167,302.5 256.833,302.5 185.5,302.5C 185.5,247.5 185.5,192.5 185.5,137.5 Z M 403.5,137.5 C 483.167,137.5 562.833,137.5 642.5,137.5C 642.5,192.5 642.5,247.5 642.5,302.5C 562.833,302.5 483.167,302.5 403.5,302.5C 403.5,247.5 403.5,192.5 403.5,137.5 Z M 646.5,137.5 C 717.833,137.5 789.167,137.5 860.5,137.5C 860.5,192.5 860.5,247.5 860.5,302.5C 789.167,302.5 717.833,302.5 646.5,302.5C 646.5,247.5 646.5,192.5 646.5,137.5 Z M 1054.5,137.5 C 1054.5,192.5 1054.5,247.5 1054.5,302.5C 991.167,302.5 927.833,302.5 864.5,302.5C 864.5,247.5 864.5,192.5 864.5,137.5C 927.833,137.5 991.167,137.5 1054.5,137.5 Z M 1058.5,137.5 C 1122.17,137.5 1185.83,137.5 1249.5,137.5C 1249.5,192.5 1249.5,247.5 1249.5,302.5C 1185.83,302.5 1122.17,302.5 1058.5,302.5C 1058.5,247.5 1058.5,192.5 1058.5,137.5 Z M 1374.5,137.5 C 1392.83,138.167 1411.17,138.833 1429.5,139.5C 1405.62,193.263 1382.29,247.263 1359.5,301.5C 1324.17,302.185 1288.84,302.518 1253.5,302.5C 1253.5,247.5 1253.5,192.5 1253.5,137.5C 1293.83,137.5 1334.17,137.5 1374.5,137.5 Z"/></g>
<g><path style="opacity:0.095" fill="#020202" d="M 49.5,137.5 C 34.6382,137.839 19.9715,138.839 5.5,140.5C 4.73261,139.828 4.06594,138.995 3.5,138C 18.8297,137.5 34.163,137.333 49.5,137.5 Z"/></g>
<g><path style="opacity:0.091" fill="#020202" d="M 1374.5,137.5 C 1393.18,137.167 1411.85,137.5 1430.5,138.5C 1430.38,139.107 1430.04,139.44 1429.5,139.5C 1411.17,138.833 1392.83,138.167 1374.5,137.5 Z"/></g>
<g><path style="opacity:0.026" fill="#000000" d="M -0.5,139.5 C 0.673734,140.514 1.3404,141.847 1.5,143.5C 0.833333,162.833 0.166667,182.167 -0.5,201.5C -0.5,180.833 -0.5,160.167 -0.5,139.5 Z"/></g>
<g><path style="opacity:1" fill="#9e9e9e" d="M 180.5,137.5 C 181.499,192.664 181.832,247.997 181.5,303.5C 145.484,304.16 109.818,303.494 74.5,301.5C 109.829,302.185 145.162,302.518 180.5,302.5C 180.5,247.5 180.5,192.5 180.5,137.5 Z"/></g>
<g><path style="opacity:1" fill="#c7c7c7" d="M 646.5,137.5 C 646.5,192.5 646.5,247.5 646.5,302.5C 717.833,302.5 789.167,302.5 860.5,302.5C 789.002,303.499 717.335,303.833 645.5,303.5C 645.168,247.997 645.501,192.664 646.5,137.5 Z"/></g>
<g><path style="opacity:1" fill="#c9c9c9" d="M 1054.5,137.5 C 1055.5,192.664 1055.83,247.997 1055.5,303.5C 991.664,303.832 927.998,303.499 864.5,302.5C 927.833,302.5 991.167,302.5 1054.5,302.5C 1054.5,247.5 1054.5,192.5 1054.5,137.5 Z"/></g>
<g><path style="opacity:1" fill="#a4a4a4" d="M 1359.5,301.5 C 1342.18,302.833 1324.51,303.5 1306.5,303.5C 1288.66,303.5 1271,303.167 1253.5,302.5C 1288.84,302.518 1324.17,302.185 1359.5,301.5 Z"/></g>
</svg>
