<?xml version="1.0" encoding="UTF-8"?>
<!DOCTYPE svg PUBLIC "-//W3C//DTD SVG 1.1//EN" "http://www.w3.org/Graphics/SVG/1.1/DTD/svg11.dtd">
<svg xmlns="http://www.w3.org/2000/svg" version="1.1" width="1544px" height="366px" style="shape-rendering:geometricPrecision; text-rendering:geometricPrecision; image-rendering:optimizeQuality; fill-rule:evenodd; clip-rule:evenodd" xmlns:xlink="http://www.w3.org/1999/xlink">
<g><path style="opacity:0.946" fill="#ececec" d="M 116.5,19.5 C 235.167,19.5 353.833,19.5 472.5,19.5C 472.5,61.8333 472.5,104.167 472.5,146.5C 823.181,146.171 1173.85,146.504 1524.5,147.5C 1500.35,207.479 1475.35,267.146 1449.5,326.5C 1224.83,326.833 1000.17,327.167 775.5,327.5C 550.833,327.333 326.167,327.167 101.5,327C 75.1823,267.204 49.849,207.037 25.5,146.5C 54.8333,146.5 84.1667,146.5 113.5,146.5C 113.5,104.5 113.5,62.5 113.5,20.5C 114.791,20.7373 115.791,20.404 116.5,19.5 Z M 117.5,23.5 C 234.833,23.5 352.167,23.5 469.5,23.5C 468.553,64.1543 468.22,104.821 468.5,145.5C 351.496,145.222 234.496,145.556 117.5,146.5C 117.5,105.5 117.5,64.5 117.5,23.5 Z M 115.5,150.5 C 148.833,150.5 182.167,150.5 215.5,150.5C 215.5,208.167 215.5,265.833 215.5,323.5C 212.167,323.5 208.833,323.5 205.5,323.5C 171.598,322.827 137.598,322.16 103.5,321.5C 80.2935,264.762 56.2935,208.429 31.5,152.5C 59.1467,150.508 87.1467,149.842 115.5,150.5 Z M 219.5,150.5 C 234.5,150.5 249.5,150.5 264.5,150.5C 264.5,208.167 264.5,265.833 264.5,323.5C 249.5,323.5 234.5,323.5 219.5,323.5C 219.5,265.833 219.5,208.167 219.5,150.5 Z M 268.5,150.5 C 280.5,150.5 292.5,150.5 304.5,150.5C 304.5,208.167 304.5,265.833 304.5,323.5C 292.5,323.5 280.5,323.5 268.5,323.5C 268.5,265.833 268.5,208.167 268.5,150.5 Z M 308.5,150.5 C 649.5,150.5 990.5,150.5 1331.5,150.5C 1331.5,208.167 1331.5,265.833 1331.5,323.5C 990.5,323.5 649.5,323.5 308.5,323.5C 308.5,265.833 308.5,208.167 308.5,150.5 Z M 1335.5,150.5 C 1374.5,150.5 1413.5,150.5 1452.5,150.5C 1474.5,151.167 1496.5,151.833 1518.5,152.5C 1493.94,208.942 1469.94,265.609 1446.5,322.5C 1409.57,323.493 1372.57,323.827 1335.5,323.5C 1335.5,265.833 1335.5,208.167 1335.5,150.5 Z"/></g>
<g><path style="opacity:0.004" fill="#000000" d="M 1440.5,139.5 C 1445.98,138.348 1451.65,138.182 1457.5,139C 1451.84,139.499 1446.18,139.666 1440.5,139.5 Z"/></g>
<g><path style="opacity:1" fill="#bebebe" d="M 115.5,150.5 C 87.1467,149.842 59.1467,150.508 31.5,152.5C 30.596,151.791 30.2627,150.791 30.5,149.5C 59.0049,149.169 87.3382,149.502 115.5,150.5 Z"/></g>
<g><path style="opacity:1" fill="#c0c0c0" d="M 1335.5,150.5 C 1397,149.168 1458.67,149.168 1520.5,150.5C 1520.38,151.107 1520.04,151.44 1519.5,151.5C 1497.34,150.503 1475.01,150.169 1452.5,150.5C 1413.5,150.5 1374.5,150.5 1335.5,150.5 Z"/></g>
<g><path style="opacity:0.085" fill="#000000" d="M 1452.5,150.5 C 1475.01,150.169 1497.34,150.503 1519.5,151.5C 1519.5,152.167 1519.17,152.5 1518.5,152.5C 1496.5,151.833 1474.5,151.167 1452.5,150.5 Z"/></g>
<g><path style="opacity:0.073" fill="#030303" d="M 103.5,321.5 C 137.598,322.16 171.598,322.827 205.5,323.5C 171.15,324.16 137.15,323.493 103.5,321.5 Z"/></g>
<g><path style="opacity:1" fill="#b4b4b4" d="M 1446.5,322.5 C 1428.35,323.833 1409.85,324.5 1391,324.5C 1372.33,324.5 1353.83,324.167 1335.5,323.5C 1372.57,323.827 1409.57,323.493 1446.5,322.5 Z"/></g>
</svg>
