<?xml version="1.0" encoding="UTF-8"?>
<!DOCTYPE svg PUBLIC "-//W3C//DTD SVG 1.1//EN" "http://www.w3.org/Graphics/SVG/1.1/DTD/svg11.dtd">
<svg xmlns="http://www.w3.org/2000/svg" version="1.1" width="1522px" height="380px" style="shape-rendering:geometricPrecision; text-rendering:geometricPrecision; image-rendering:optimizeQuality; fill-rule:evenodd; clip-rule:evenodd" xmlns:xlink="http://www.w3.org/1999/xlink">
<g><path style="opacity:0.985" fill="#f1f1f1" d="M 467.5,83.5 C 466.503,101.659 466.17,119.992 466.5,138.5C 783.667,138.833 1100.67,138.5 1417.5,137.5C 1450.19,137.074 1482.86,137.741 1515.5,139.5C 1491.04,199.385 1465.71,258.885 1439.5,318C 1215.68,319.161 991.849,319.661 768,319.5C 544.151,319.661 320.317,319.161 96.5,318C 69.9162,258.669 44.5829,198.836 20.5,138.5C 49.8218,137.595 79.1551,137.262 108.5,137.5C 108.172,95.7907 108.506,54.124 109.5,12.5C 227.832,11.3333 346.165,11.1667 464.5,12C 466.225,35.6217 467.225,59.455 467.5,83.5 Z M 112.5,16.5 C 229.167,16.5 345.833,16.5 462.5,16.5C 462.5,56.8333 462.5,97.1667 462.5,137.5C 345.833,137.5 229.167,137.5 112.5,137.5C 112.5,97.1667 112.5,56.8333 112.5,16.5 Z M 110.5,142.5 C 143.833,142.5 177.167,142.5 210.5,142.5C 210.5,200.167 210.5,257.833 210.5,315.5C 173.832,315.667 137.165,315.5 100.5,315C 75.9285,258.034 51.2618,201.201 26.5,144.5C 54.1467,142.508 82.1467,141.842 110.5,142.5 Z M 214.5,142.5 C 285.5,142.5 356.5,142.5 427.5,142.5C 427.5,200.167 427.5,257.833 427.5,315.5C 356.5,315.5 285.5,315.5 214.5,315.5C 214.5,257.833 214.5,200.167 214.5,142.5 Z M 431.5,142.5 C 513.5,142.5 595.5,142.5 677.5,142.5C 677.5,200.167 677.5,257.833 677.5,315.5C 595.5,315.5 513.5,315.5 431.5,315.5C 431.5,257.833 431.5,200.167 431.5,142.5 Z M 681.5,142.5 C 894.833,142.5 1108.17,142.5 1321.5,142.5C 1321.5,200.167 1321.5,257.833 1321.5,315.5C 1108.17,315.5 894.833,315.5 681.5,315.5C 681.5,257.833 681.5,200.167 681.5,142.5 Z M 1326.5,142.5 C 1365.17,142.5 1403.83,142.5 1442.5,142.5C 1464.69,142.837 1486.69,143.837 1508.5,145.5C 1484.35,201.984 1460.01,258.484 1435.5,315C 1399.17,315.5 1362.83,315.667 1326.5,315.5C 1326.5,257.833 1326.5,200.167 1326.5,142.5 Z"/></g>
<g><path style="opacity:1" fill="#999999" d="M 112.5,16.5 C 229.332,15.5005 346.332,15.1671 463.5,15.5C 463.5,56.5 463.5,97.5 463.5,138.5C 346.332,138.833 229.332,138.5 112.5,137.5C 229.167,137.5 345.833,137.5 462.5,137.5C 462.5,97.1667 462.5,56.8333 462.5,16.5C 345.833,16.5 229.167,16.5 112.5,16.5 Z"/></g>
<g><path style="opacity:0.127" fill="#989898" d="M 467.5,83.5 C 467.5,101.5 467.5,119.5 467.5,137.5C 784.167,137.5 1100.83,137.5 1417.5,137.5C 1100.67,138.5 783.667,138.833 466.5,138.5C 466.17,119.992 466.503,101.659 467.5,83.5 Z"/></g>
<g><path style="opacity:1" fill="#a7a7a7" d="M 110.5,142.5 C 82.1467,141.842 54.1467,142.508 26.5,144.5C 25.596,143.791 25.2627,142.791 25.5,141.5C 54.0049,141.169 82.3382,141.502 110.5,142.5 Z"/></g>
<g><path style="opacity:1" fill="#a7a7a7" d="M 1326.5,142.5 C 1387.67,141.168 1449,141.168 1510.5,142.5C 1510.38,143.107 1510.04,143.44 1509.5,143.5C 1487.34,142.503 1465.01,142.169 1442.5,142.5C 1403.83,142.5 1365.17,142.5 1326.5,142.5 Z"/></g>
<g><path style="opacity:1" fill="#858585" d="M 681.5,142.5 C 894.999,141.5 1108.67,141.167 1322.5,141.5C 1322.83,199.669 1322.5,257.669 1321.5,315.5C 1321.5,257.833 1321.5,200.167 1321.5,142.5C 1108.17,142.5 894.833,142.5 681.5,142.5 Z"/></g>
<g><path style="opacity:0.06" fill="#000000" d="M 1442.5,142.5 C 1465.01,142.169 1487.34,142.503 1509.5,143.5C 1509.67,144.492 1509.34,145.158 1508.5,145.5C 1486.69,143.837 1464.69,142.837 1442.5,142.5 Z"/></g>
</svg>
