<!-- <?xml version="1.0" encoding="UTF-8"?>
<!DOCTYPE svg PUBLIC "-//W3C//DTD SVG 1.1//EN" "http://www.w3.org/Graphics/SVG/1.1/DTD/svg11.dtd"> -->
<svg xmlns="http://www.w3.org/2000/svg" version="1.1" width="1600px" height="731px"
  style="shape-rendering:geometricPrecision; text-rendering:geometricPrecision; image-rendering:optimizeQuality; fill-rule:evenodd; clip-rule:evenodd"
  xmlns:xlink="http://www.w3.org/1999/xlink">
  <g>
    <path style="opacity:1" fill="#f6f6f6"
      d="M -0.5,-0.5 C 532.833,-0.5 1066.17,-0.5 1599.5,-0.5C 1599.5,243.167 1599.5,486.833 1599.5,730.5C 1066.17,730.5 532.833,730.5 -0.5,730.5C -0.5,486.833 -0.5,243.167 -0.5,-0.5 Z M 11.5,6.5 C 539.5,6.5 1067.5,6.5 1595.5,6.5C 1595.5,55.5 1595.5,104.5 1595.5,153.5C 1595.5,344.833 1595.5,536.167 1595.5,727.5C 1067.5,727.5 539.5,727.5 11.5,727.5C 11.5,538.833 11.5,350.167 11.5,161.5C 11.5,109.833 11.5,58.1667 11.5,6.5 Z" />
  </g>
  <g>
    <path style="opacity:1" fill="#f2f2f2"
      d="M 1096.5,109.5 C 1092.45,113.691 1087.45,116.024 1081.5,116.5C 1080.62,116.631 1079.96,116.298 1079.5,115.5C 1077.41,107.455 1075.41,99.1215 1073.5,90.5C 1075.04,88.5539 1077.04,88.0539 1079.5,89C 1087.66,94.5795 1093.33,101.413 1096.5,109.5 Z" />
  </g>
  <g>
    <path style="opacity:1" fill="#f4f4f4"
      d="M 1228.5,117.5 C 1228.5,118.167 1228.5,118.833 1228.5,119.5C 1227.88,119.611 1227.38,119.944 1227,120.5C 1226.89,128.378 1226.05,135.878 1224.5,143C 1227.17,146.091 1230.34,148.591 1234,150.5C 1236.44,149.094 1238.94,147.76 1241.5,146.5C 1242.5,145.167 1243.5,143.833 1244.5,142.5C 1245.09,142.709 1245.59,143.043 1246,143.5C 1245.58,141.613 1245.74,139.613 1246.5,137.5C 1251.54,136.922 1256.54,136.422 1261.5,136C 1267.74,138.411 1271.74,142.244 1273.5,147.5C 1274.5,147.5 1275.5,147.5 1276.5,147.5C 1277.79,151.412 1279.62,155.079 1282,158.5C 1282.33,157.833 1282.67,157.167 1283,156.5C 1284.69,158.604 1286.86,160.104 1289.5,161C 1295.18,162.84 1300.84,164.674 1306.5,166.5C 1307.95,168.618 1308.61,170.951 1308.5,173.5C 1307.35,176.041 1307.35,178.541 1308.5,181C 1313.53,181.789 1318.53,182.623 1323.5,183.5C 1322.17,184.833 1322.17,186.167 1323.5,187.5C 1325.84,196.153 1323.17,202.82 1315.5,207.5C 1311.6,208.607 1309.6,211.273 1309.5,215.5C 1310.35,219.533 1312.02,223.2 1314.5,226.5C 1318.44,226.684 1321.44,228.35 1323.5,231.5C 1324.82,228.972 1325.98,228.972 1327,231.5C 1328.58,228.249 1330.58,225.249 1333,222.5C 1334.61,219.726 1336.77,219.06 1339.5,220.5C 1338.45,222.102 1339.12,222.935 1341.5,223C 1338.96,223.928 1337.96,225.762 1338.5,228.5C 1337.5,228.5 1336.5,228.5 1335.5,228.5C 1332.36,235.571 1332.03,242.904 1334.5,250.5C 1336.63,254.134 1339.8,255.801 1344,255.5C 1347.51,253.614 1351.68,252.78 1356.5,253C 1357.7,260.577 1361.54,266.411 1368,270.5C 1371.61,279.116 1377.95,284.449 1387,286.5C 1390.34,285.58 1393.51,284.247 1396.5,282.5C 1398.97,279.326 1399.14,275.993 1397,272.5C 1394.32,270.5 1391.99,268.167 1390,265.5C 1389.38,264.551 1389.55,263.718 1390.5,263C 1388.18,259.515 1385.51,256.349 1382.5,253.5C 1383.55,251.898 1382.88,251.065 1380.5,251C 1383.28,248.827 1383.11,248.327 1380,249.5C 1377.46,246.234 1374.96,243.067 1372.5,240C 1369.21,239.999 1367.05,238.499 1366,235.5C 1365.33,236.833 1364.33,237.833 1363,238.5C 1360.32,237.932 1357.82,236.932 1355.5,235.5C 1356.53,234.3 1357.36,232.966 1358,231.5C 1358.33,231.833 1358.67,232.167 1359,232.5C 1359.64,231.354 1360.48,230.354 1361.5,229.5C 1360.11,227.064 1360.61,226.398 1363,227.5C 1364.76,225.281 1366.76,223.281 1369,221.5C 1375.37,227.463 1380.87,234.296 1385.5,242C 1387.91,243.707 1390.58,244.54 1393.5,244.5C 1395.33,249.85 1396.16,255.183 1396,260.5C 1399.07,265.619 1403.57,268.619 1409.5,269.5C 1409.5,270.833 1409.5,272.167 1409.5,273.5C 1409.34,275.153 1408.67,276.486 1407.5,277.5C 1406.5,277.5 1405.5,277.5 1404.5,277.5C 1404.33,283.842 1404.5,290.175 1405,296.5C 1410.98,300.438 1417.14,300.938 1423.5,298C 1422.29,294.262 1420.96,290.595 1419.5,287C 1422.68,281.509 1426.18,276.343 1430,271.5C 1431.33,270.833 1432.67,270.167 1434,269.5C 1436.7,273.714 1439.53,277.881 1442.5,282C 1446.45,282.538 1450.28,282.038 1454,280.5C 1461.3,283.164 1468.8,283.997 1476.5,283C 1478.42,282.64 1480.09,281.806 1481.5,280.5C 1482.41,281.79 1482.24,283.123 1481,284.5C 1480.33,294.5 1480.33,304.5 1481,314.5C 1481.62,317.85 1482.79,320.184 1484.5,321.5C 1482.13,326.733 1478.3,328.399 1473,326.5C 1471.21,326.759 1469.71,327.425 1468.5,328.5C 1464.77,326.513 1460.94,326.18 1457,327.5C 1456.84,332.044 1457.34,336.544 1458.5,341C 1458.46,342.764 1458.12,344.431 1457.5,346C 1445.82,346.937 1434.16,347.937 1422.5,349C 1417.17,355 1411.83,361 1406.5,367C 1404.03,367.706 1401.7,367.373 1399.5,366C 1397.67,361.85 1395.84,357.684 1394,353.5C 1390.49,350.319 1386.32,348.486 1381.5,348C 1378.6,344.095 1376.1,339.929 1374,335.5C 1372.82,333.643 1371.15,332.643 1369,332.5C 1356.01,336.086 1342.85,337.253 1329.5,336C 1324.8,341.034 1319.8,345.7 1314.5,350C 1307.8,349.764 1301.14,348.93 1294.5,347.5C 1291.05,347.592 1288.21,348.925 1286,351.5C 1285.58,355.933 1284.08,359.933 1281.5,363.5C 1276.95,366.301 1272.12,368.634 1267,370.5C 1265.06,369.561 1263.39,368.227 1262,366.5C 1259.92,362.664 1257.58,358.997 1255,355.5C 1255.11,348.469 1254.94,341.469 1254.5,334.5C 1246.21,331.024 1237.87,327.524 1229.5,324C 1224.09,323.64 1218.76,322.806 1213.5,321.5C 1209.04,322.64 1205.37,324.973 1202.5,328.5C 1200.14,328.663 1197.81,328.497 1195.5,328C 1194.22,326.354 1192.55,325.187 1190.5,324.5C 1191.63,322.471 1191.13,322.137 1189,323.5C 1187.39,320.622 1186.06,317.622 1185,314.5C 1181.83,309.993 1177.99,306.16 1173.5,303C 1175.9,298.123 1179.9,295.29 1185.5,294.5C 1186.14,293.354 1186.98,292.354 1188,291.5C 1188.52,285.782 1188.52,280.115 1188,274.5C 1192.23,270.596 1195.73,266.096 1198.5,261C 1199.97,260.365 1201.3,259.531 1202.5,258.5C 1209,262.691 1215.83,263.358 1223,260.5C 1223.33,260.833 1223.67,261.167 1224,261.5C 1224.37,260.584 1224.87,259.75 1225.5,259C 1228.53,257.716 1231.53,256.549 1234.5,255.5C 1234.73,253.567 1235.56,251.9 1237,250.5C 1237.29,246.176 1237.46,242.009 1237.5,238C 1236.32,234.564 1233.98,232.231 1230.5,231C 1230.83,230.667 1231.17,230.333 1231.5,230C 1229.78,228.441 1227.78,227.608 1225.5,227.5C 1224.59,222.961 1222.25,219.294 1218.5,216.5C 1214.39,217.383 1210.39,217.716 1206.5,217.5C 1204.07,216.27 1201.57,215.27 1199,214.5C 1198.87,208.408 1199.04,202.242 1199.5,196C 1198.26,192.643 1197.42,192.81 1197,196.5C 1194.48,193.819 1191.65,191.486 1188.5,189.5C 1188.98,188.522 1189.64,187.689 1190.5,187C 1186.33,188.253 1185.66,187.253 1188.5,184C 1187.29,180.888 1187.29,177.722 1188.5,174.5C 1187.82,171.456 1186.99,168.456 1186,165.5C 1183.85,164.624 1182.02,163.291 1180.5,161.5C 1181.69,158.052 1183.53,155.052 1186,152.5C 1186.34,143.491 1190.84,137.658 1199.5,135C 1199.7,128.625 1196.7,124.125 1190.5,121.5C 1188.73,118.554 1186.73,115.72 1184.5,113C 1185.54,111.726 1186.7,110.56 1188,109.5C 1191.53,110.211 1195.2,110.544 1199,110.5C 1200.41,109.088 1202.08,108.088 1204,107.5C 1208.42,106.634 1212.75,106.3 1217,106.5C 1218.44,107.9 1219.27,109.567 1219.5,111.5C 1222.31,112.126 1224.81,113.46 1227,115.5C 1227.33,115.167 1227.67,114.833 1228,114.5C 1228.48,115.448 1228.65,116.448 1228.5,117.5 Z" />
  </g>
  <g>
    <path style="opacity:1" fill="#f3f3f3"
      d="M 948.5,159.5 C 950.105,161.947 951.938,164.28 954,166.5C 958.575,167.624 962.908,169.291 967,171.5C 967.873,171.265 968.707,170.931 969.5,170.5C 972.748,172.327 975.581,174.66 978,177.5C 979.868,176.328 981.702,176.495 983.5,178C 982.5,178.333 981.5,178.667 980.5,179C 983.833,179.667 987.167,180.333 990.5,181C 990.167,181.333 989.833,181.667 989.5,182C 990.9,183.438 992.567,184.271 994.5,184.5C 995.833,187.167 997.167,189.833 998.5,192.5C 999.93,192.421 1001.26,192.754 1002.5,193.5C 1003.91,192.194 1005.58,191.36 1007.5,191C 1006.83,190.667 1006.17,190.333 1005.5,190C 1011.03,187.888 1013.03,184.055 1011.5,178.5C 1011.89,176.726 1012.55,175.059 1013.5,173.5C 1017.02,171.921 1020.69,170.588 1024.5,169.5C 1026.53,167.062 1028.2,164.395 1029.5,161.5C 1030.67,160.416 1032,159.583 1033.5,159C 1033.17,158.667 1032.83,158.333 1032.5,158C 1033.48,157.409 1034.15,157.743 1034.5,159C 1033.39,160.44 1033.39,161.94 1034.5,163.5C 1034.2,165.441 1033.36,167.107 1032,168.5C 1031.5,170.473 1031.34,172.473 1031.5,174.5C 1028.23,179.113 1024.56,183.446 1020.5,187.5C 1023.99,194.438 1024.16,201.438 1021,208.5C 1016.72,209.711 1012.39,209.711 1008,208.5C 1005.37,208.934 1002.87,209.767 1000.5,211C 999.342,215.106 998.342,219.272 997.5,223.5C 991.091,228.561 983.924,230.228 976,228.5C 974.206,221.174 972.039,214.008 969.5,207C 971.554,204.392 973.221,201.559 974.5,198.5C 974.484,196.484 973.484,195.484 971.5,195.5C 970.5,194.167 969.5,194.167 968.5,195.5C 967.833,195.5 967.5,195.833 967.5,196.5C 965.107,200.598 961.44,202.765 956.5,203C 954.016,205.284 953.849,207.784 956,210.5C 960.337,213.84 962.504,218.174 962.5,223.5C 957.951,224.463 953.617,225.796 949.5,227.5C 940.595,225.731 931.595,225.231 922.5,226C 916.771,228.444 913.438,232.777 912.5,239C 909.136,240.34 905.636,241.173 902,241.5C 899.966,241.646 898.299,240.98 897,239.5C 894.584,234.754 892.917,229.754 892,224.5C 888.665,220.386 884.331,218.386 879,218.5C 875.155,218.906 871.321,219.406 867.5,220C 860.201,225.204 852.534,226.204 844.5,223C 839.661,221.079 834.994,218.912 830.5,216.5C 829.404,213.227 827.071,211.561 823.5,211.5C 821.049,209.41 818.716,207.077 816.5,204.5C 816.439,202.408 815.439,200.908 813.5,200C 814.833,199 814.833,198 813.5,197C 817.311,192.514 820.311,187.514 822.5,182C 821.919,177.236 821.586,172.569 821.5,168C 821.411,165.287 822.078,162.787 823.5,160.5C 822.36,158.527 821.027,156.693 819.5,155C 820.451,154.282 820.617,153.449 820,152.5C 818.114,151.07 816.447,149.403 815,147.5C 814.316,146.216 814.483,145.049 815.5,144C 813.393,142.736 812.393,140.903 812.5,138.5C 811.325,138.719 810.325,138.386 809.5,137.5C 809.833,137.167 810.167,136.833 810.5,136.5C 812.747,137.374 815.08,137.708 817.5,137.5C 817.343,138.873 817.51,140.207 818,141.5C 818.333,140.833 818.667,140.167 819,139.5C 820.419,144.555 823.753,147.555 829,148.5C 831.478,146.512 834.312,145.512 837.5,145.5C 837.232,141.574 838.065,137.907 840,134.5C 843.745,135.297 847.579,135.797 851.5,136C 856.942,140.873 862.609,141.706 868.5,138.5C 870.905,140.642 872.238,143.309 872.5,146.5C 874.167,146.5 875.833,146.5 877.5,146.5C 876.604,151.384 878.604,154.051 883.5,154.5C 891.085,152.274 898.752,152.107 906.5,154C 910.495,156.496 914.828,158.162 919.5,159C 929.161,159.5 938.828,159.666 948.5,159.5 Z" />
  </g>
  <g>
    <path style="opacity:1" fill="#f2f2f2"
      d="M 1065.5,152.5 C 1059.72,155.858 1053.38,157.191 1046.5,156.5C 1044.3,155.835 1041.97,155.168 1039.5,154.5C 1040.33,150.461 1042.5,147.461 1046,145.5C 1047.18,140.335 1050.34,138.502 1055.5,140C 1056.83,142 1058.5,143.667 1060.5,145C 1063.75,145.962 1066.75,147.462 1069.5,149.5C 1067.67,150.057 1066.34,151.057 1065.5,152.5 Z" />
  </g>
  <g>
    <path style="opacity:1" fill="#cdcdcd"
      d="M 1595.5,6.5 C 1596.83,126.331 1597.5,246.498 1597.5,367C 1597.5,487.334 1597.17,607.5 1596.5,727.5C 1596.83,535.999 1596.5,344.666 1595.5,153.5C 1595.5,104.5 1595.5,55.5 1595.5,6.5 Z" />
  </g>
  <g>
    <path style="opacity:0.212" fill="#bbbbbb"
      d="M 1595.5,153.5 C 1596.5,344.666 1596.83,535.999 1596.5,727.5C 1068,728.5 539.334,728.833 10.5,728.5C 10.167,539.333 10.5003,350.333 11.5,161.5C 11.5,350.167 11.5,538.833 11.5,727.5C 539.5,727.5 1067.5,727.5 1595.5,727.5C 1595.5,536.167 1595.5,344.833 1595.5,153.5 Z" />
  </g>
  <g>
    <path style="opacity:0.996"
      d="M 1070.5,523.5 C 1071.5,523.5 1072.5,523.5 1073.5,523.5C 1077.73,537.037 1081.9,550.704 1086,564.5C 1091.75,573.672 1097.75,582.672 1104,591.5C 1106.08,596.63 1106.91,601.963 1106.5,607.5C 1105.5,607.5 1104.5,607.5 1103.5,607.5C 1101.06,594.957 1095.23,584.29 1086,575.5C 1084.33,572.167 1082.67,568.833 1081,565.5C 1078.86,555.928 1076.03,546.594 1072.5,537.5C 1071.98,533.467 1070.64,529.8 1068.5,526.5C 1067.51,524.877 1068.18,523.877 1070.5,523.5 Z" />
  </g>
  <g>
    <path style="opacity:1" fill="#cdcdcd"
      d="M 718.5,418.5 C 719.649,418.791 720.316,419.624 720.5,421C 720.576,423.756 719.243,424.923 716.5,424.5C 716.253,422.142 716.919,420.142 718.5,418.5 Z" />
  </g>
  <g>
    <path style="opacity:0.998" fill="#f1f1f1"
      d="M 677.5,417.5 C 677.5,418.5 677.5,419.5 677.5,420.5C 683.5,420.5 689.5,420.5 695.5,420.5C 696.213,423.237 696.213,425.904 695.5,428.5C 696.376,429.251 697.376,429.751 698.5,430C 697.359,430.741 697.359,431.575 698.5,432.5C 701.596,435.771 705.096,438.437 709,440.5C 709.499,444.821 709.666,449.154 709.5,453.5C 708.942,454.79 707.942,455.623 706.5,456C 703.768,456.413 701.101,457.08 698.5,458C 689.078,469.486 680.078,469.153 671.5,457C 670.552,456.517 669.552,456.351 668.5,456.5C 668.762,455.022 668.429,453.689 667.5,452.5C 666.614,453.325 666.281,454.325 666.5,455.5C 664.83,455.249 663.33,454.582 662,453.5C 659.347,456.194 656.18,457.027 652.5,456C 645.909,454.218 640.576,450.718 636.5,445.5C 636.5,445.167 636.5,444.833 636.5,444.5C 636.5,442.833 636.5,441.167 636.5,439.5C 636.221,434.674 636.887,430.008 638.5,425.5C 637.79,422.201 637.457,418.867 637.5,415.5C 640.167,414.833 641.833,413.167 642.5,410.5C 646.658,408.335 650.991,408.002 655.5,409.5C 656.492,409.672 657.158,409.338 657.5,408.5C 660.799,407.624 664.132,407.457 667.5,408C 670.729,411.399 674.062,414.565 677.5,417.5 Z" />
  </g>
  <g>
    <path style="opacity:1" fill="#f4f4f4"
      d="M 1491.5,506.5 C 1491.03,510.062 1489.87,513.395 1488,516.5C 1483.9,518.319 1479.73,520.152 1475.5,522C 1473.6,523.815 1471.93,525.815 1470.5,528C 1463.02,528.261 1457.02,525.261 1452.5,519C 1450.3,517.627 1447.97,517.294 1445.5,518C 1444.55,523.158 1444.89,528.325 1446.5,533.5C 1446.09,538.41 1443.42,541.243 1438.5,542C 1433.68,549.075 1427.02,552.408 1418.5,552C 1412.77,558.13 1407.77,564.797 1403.5,572C 1402.17,572.667 1400.83,572.667 1399.5,572C 1396.93,568.017 1393.6,564.85 1389.5,562.5C 1383.45,564.84 1377.45,567.173 1371.5,569.5C 1369.97,569.427 1368.97,570.094 1368.5,571.5C 1365.83,574.5 1363.17,577.5 1360.5,580.5C 1358.93,581.681 1358.1,583.347 1358,585.5C 1356.87,584.396 1356.04,584.729 1355.5,586.5C 1357.12,588.739 1356.79,590.573 1354.5,592C 1355.17,592.333 1355.83,592.667 1356.5,593C 1353.33,593.582 1353,594.582 1355.5,596C 1350.19,596.205 1345.02,597.705 1340,600.5C 1339.05,599.978 1338.22,599.311 1337.5,598.5C 1336.96,592.87 1335.63,587.536 1333.5,582.5C 1330.74,582.256 1328.57,580.923 1327,578.5C 1325.33,579.833 1323.67,579.833 1322,578.5C 1322.02,567.15 1317.52,558.317 1308.5,552C 1304.83,551.333 1301.17,551.333 1297.5,552C 1294.82,552.814 1292.82,554.314 1291.5,556.5C 1290.83,558.167 1290.17,559.833 1289.5,561.5C 1288.83,561.5 1288.5,561.833 1288.5,562.5C 1287.83,562.5 1287.5,562.833 1287.5,563.5C 1286.83,563.5 1286.5,563.833 1286.5,564.5C 1275.21,566.441 1263.88,566.941 1252.5,566C 1251.33,567.167 1250.17,568.333 1249,569.5C 1248.44,574.91 1248.44,580.244 1249,585.5C 1242.88,592.113 1236.54,598.446 1230,604.5C 1227.41,610.016 1224.08,615.016 1220,619.5C 1221.24,625.706 1220.57,631.706 1218,637.5C 1215.52,639.314 1212.69,639.98 1209.5,639.5C 1209.39,638.883 1209.06,638.383 1208.5,638C 1203.48,636.159 1198.48,636.159 1193.5,638C 1193.83,638.333 1194.17,638.667 1194.5,639C 1191.86,640.287 1190.86,642.453 1191.5,645.5C 1190.17,645.5 1188.83,645.5 1187.5,645.5C 1187.66,644.127 1187.49,642.793 1187,641.5C 1184.55,638.923 1181.88,636.589 1179,634.5C 1174.25,635.305 1169.42,635.805 1164.5,636C 1163.94,636.383 1163.61,636.883 1163.5,637.5C 1155.61,639.836 1147.61,640.003 1139.5,638C 1136.76,632.665 1133.43,627.832 1129.5,623.5C 1125.14,614.466 1117.8,609.632 1107.5,609C 1106.94,608.617 1106.61,608.117 1106.5,607.5C 1106.91,601.963 1106.08,596.63 1104,591.5C 1097.75,582.672 1091.75,573.672 1086,564.5C 1081.9,550.704 1077.73,537.037 1073.5,523.5C 1073.34,522.127 1073.51,520.793 1074,519.5C 1074.65,520.696 1075.15,520.696 1075.5,519.5C 1074.83,518.833 1074.17,518.167 1073.5,517.5C 1074.92,510.665 1078.75,505.665 1085,502.5C 1087.53,494.699 1088.53,486.699 1088,478.5C 1091.75,473.664 1096.59,472.33 1102.5,474.5C 1103.34,478.057 1104.34,481.557 1105.5,485C 1105.36,486.226 1105.02,487.393 1104.5,488.5C 1109.93,497.048 1117.59,500.382 1127.5,498.5C 1130.78,498.641 1133.78,499.641 1136.5,501.5C 1135.17,504.849 1135.67,505.182 1138,502.5C 1139.78,505.943 1141.95,509.11 1144.5,512C 1150.05,512.639 1155.22,512.139 1160,510.5C 1181.32,519.507 1191.32,512.507 1190,489.5C 1188.95,486.307 1187.45,483.307 1185.5,480.5C 1185.71,479.914 1186.04,479.414 1186.5,479C 1183.82,474.643 1181.16,470.31 1178.5,466C 1178.96,465.586 1179.29,465.086 1179.5,464.5C 1178.48,463.646 1177.64,462.646 1177,461.5C 1177.39,456.868 1177.39,452.201 1177,447.5C 1174.03,443.35 1171.36,439.016 1169,434.5C 1168.25,433.874 1167.42,433.374 1166.5,433C 1166.97,431.701 1166.97,430.201 1166.5,428.5C 1169.72,426.798 1172.55,424.464 1175,421.5C 1175.33,421.833 1175.67,422.167 1176,422.5C 1178.67,421.833 1181.33,421.167 1184,420.5C 1185,421.167 1186,421.833 1187,422.5C 1186.89,429.291 1189.39,434.791 1194.5,439C 1202.61,440.101 1210.77,440.601 1219,440.5C 1226.08,440.491 1233.08,440.158 1240,439.5C 1242.55,441.443 1244.55,444.443 1246,448.5C 1250.56,452.123 1255.73,453.29 1261.5,452C 1265.18,451.165 1268.85,450.332 1272.5,449.5C 1276.32,452.166 1280.49,454.166 1285,455.5C 1292.47,453.681 1299.97,451.848 1307.5,450C 1313.43,447.065 1319.09,443.732 1324.5,440C 1329.49,439.618 1333.82,437.785 1337.5,434.5C 1339.62,431.514 1342.12,428.847 1345,426.5C 1345.56,423.845 1346.06,421.179 1346.5,418.5C 1345.68,413.868 1345.35,409.201 1345.5,404.5C 1348.96,404.96 1350.62,406.96 1350.5,410.5C 1354.96,411.665 1358.79,413.332 1362,415.5C 1362.41,415.043 1362.91,414.709 1363.5,414.5C 1364.84,416.005 1366.51,416.672 1368.5,416.5C 1369.42,421.19 1370.59,426.19 1372,431.5C 1373.84,430.167 1374.34,430.334 1373.5,432C 1378.52,438.161 1382.52,445.328 1385.5,453.5C 1387.77,453.141 1389.6,453.808 1391,455.5C 1398.88,454.395 1406.72,453.061 1414.5,451.5C 1418.73,453.447 1423.06,455.114 1427.5,456.5C 1434.12,454.478 1440.95,453.145 1448,452.5C 1453.86,453.056 1459.36,454.056 1464.5,455.5C 1465.58,461.166 1466.58,466.832 1467.5,472.5C 1466.83,473.167 1466.17,473.833 1465.5,474.5C 1466.27,475.711 1467.11,475.711 1468,474.5C 1468.72,476.112 1468.55,477.612 1467.5,479C 1469.31,482.561 1470.64,486.394 1471.5,490.5C 1473.55,492.194 1475.89,493.361 1478.5,494C 1482.52,494.145 1486.36,494.979 1490,496.5C 1490.33,496.167 1490.67,495.833 1491,495.5C 1491.78,496.729 1492.28,498.062 1492.5,499.5C 1491.78,501.782 1491.44,504.116 1491.5,506.5 Z" />
  </g>
  <g>
    <path style="opacity:1" fill="#f3f3f3"
      d="M 690.5,369.5 C 695.975,369.907 700.308,372.407 703.5,377C 708.048,379.401 712.715,381.401 717.5,383C 712.662,382.507 709.329,384.507 707.5,389C 710.253,395.925 710.086,402.759 707,409.5C 704.042,406.607 701.209,403.607 698.5,400.5C 697.614,401.325 697.281,402.325 697.5,403.5C 690.209,403.408 688.209,400.241 691.5,394C 690.438,387.938 688.771,382.105 686.5,376.5C 687.071,373.687 688.404,371.354 690.5,369.5 Z" />
  </g>
  <g>
    <path style="opacity:1" fill="#f4f4f4"
      d="M 852.5,350.5 C 852.952,353.876 853.618,357.209 854.5,360.5C 857.342,363.542 860.176,366.542 863,369.5C 863.333,373.5 863.667,377.5 864,381.5C 864.833,382.5 865.667,383.5 866.5,384.5C 872.235,386.413 878.069,387.746 884,388.5C 895.705,389.383 907.538,389.383 919.5,388.5C 919.5,389.5 919.5,390.5 919.5,391.5C 922.049,391.387 924.382,392.054 926.5,393.5C 929.438,392.425 932.438,392.259 935.5,393C 939.124,393.188 942.291,394.355 945,396.5C 945.308,395.692 945.808,395.025 946.5,394.5C 946.623,396.378 946.623,398.211 946.5,400C 945.643,400.689 944.977,401.522 944.5,402.5C 944.846,403.696 945.346,403.696 946,402.5C 946.167,403.667 946.333,404.833 946.5,406C 945.051,408.841 945.551,411.008 948,412.5C 949.299,423.863 954.799,432.363 964.5,438C 964.167,438.333 963.833,438.667 963.5,439C 968.626,440.574 972.793,443.408 976,447.5C 976.333,447.167 976.667,446.833 977,446.5C 982.562,455.416 990.395,458.583 1000.5,456C 1004,454.044 1007.67,452.544 1011.5,451.5C 1013.47,452.157 1015.31,452.157 1017,451.5C 1018.91,453.424 1020.07,455.757 1020.5,458.5C 1019.67,459.415 1018.67,460.081 1017.5,460.5C 1016.27,461.651 1016.27,462.817 1017.5,464C 1015.36,466.098 1015.36,468.432 1017.5,471C 1017.51,472.583 1017.17,474.249 1016.5,476C 1018.89,476.284 1019.55,477.284 1018.5,479C 1019.25,482.28 1019.91,485.614 1020.5,489C 1018.7,492.466 1017.36,495.799 1016.5,499C 1018.12,501.137 1017.79,502.803 1015.5,504C 1016.52,504.519 1017.18,505.353 1017.5,506.5C 1016.39,508.733 1016.39,510.899 1017.5,513C 1014.95,515.269 1014.95,517.602 1017.5,520C 1016.72,521.543 1016.72,523.21 1017.5,525C 1017.53,527.64 1016.19,528.973 1013.5,529C 1014.97,529.71 1015.64,530.876 1015.5,532.5C 1010.1,536.535 1004.1,539.535 997.5,541.5C 996.5,541.5 995.5,541.5 994.5,541.5C 991.582,547.289 992.582,552.456 997.5,557C 1000.19,557.343 1002.19,558.676 1003.5,561C 1004.79,561.49 1006.13,561.657 1007.5,561.5C 1007.5,562.5 1007.5,563.5 1007.5,564.5C 1014.09,566.655 1020.09,565.655 1025.5,561.5C 1026.29,557.271 1028.29,553.771 1031.5,551C 1036.99,549.92 1041.99,547.754 1046.5,544.5C 1057.74,550.582 1065.91,547.582 1071,535.5C 1071.28,536.416 1071.78,537.082 1072.5,537.5C 1076.03,546.594 1078.86,555.928 1081,565.5C 1082.67,568.833 1084.33,572.167 1086,575.5C 1095.23,584.29 1101.06,594.957 1103.5,607.5C 1098.49,611.08 1095.99,616.08 1096,622.5C 1090.83,626.333 1085.67,630.167 1080.5,634C 1058.14,635.948 1035.81,638.115 1013.5,640.5C 1008.77,639.818 1004.1,638.818 999.5,637.5C 990.786,641.857 982.12,646.19 973.5,650.5C 971.626,650.61 970.126,649.944 969,648.5C 966.373,641.537 961.54,637.037 954.5,635C 951.872,633.374 949.539,631.374 947.5,629C 941.966,626.246 936.466,626.079 931,628.5C 930.633,634.204 929.966,639.87 929,645.5C 925.826,646.728 922.659,646.561 919.5,645C 914.833,642.333 910.167,639.667 905.5,637C 901.6,633.19 897.934,629.19 894.5,625C 890.874,622.472 886.874,620.805 882.5,620C 880.959,618.629 879.625,617.129 878.5,615.5C 877.962,612.811 877.295,610.144 876.5,607.5C 877.167,606.5 877.833,605.5 878.5,604.5C 883.416,601.753 887.916,598.42 892,594.5C 895.254,584.791 895.587,575.125 893,565.5C 887.808,560.668 881.642,559.168 874.5,561C 872.618,561.198 870.952,561.698 869.5,562.5C 868.469,563.249 867.302,563.915 866,564.5C 865.333,565.5 865.333,566.5 866,567.5C 869.516,569.926 872.849,572.593 876,575.5C 877.028,577.844 877.694,580.177 878,582.5C 873.167,586.667 868.333,590.833 863.5,595C 853.699,596.087 844.032,597.754 834.5,600C 832.622,601.543 831.122,603.376 830,605.5C 831.18,616.814 827.513,626.147 819,633.5C 817.54,638.469 816.206,643.469 815,648.5C 809.118,650.908 802.951,651.908 796.5,651.5C 796.414,650.504 796.748,649.671 797.5,649C 796.484,648.481 795.818,647.647 795.5,646.5C 794.276,640.258 792.442,634.258 790,628.5C 789.667,629.167 789.333,629.833 789,630.5C 787.398,628.354 786.232,626.02 785.5,623.5C 781.826,622.791 778.659,621.124 776,618.5C 775.282,619.451 774.449,619.617 773.5,619C 776.277,616.827 776.11,616.327 773,617.5C 766.663,613.825 763.163,608.325 762.5,601C 764.485,594.955 766.985,589.121 770,583.5C 771.41,582.213 772.91,581.046 774.5,580C 780.556,579.772 786.556,580.272 792.5,581.5C 806.83,574.835 817.164,564.168 823.5,549.5C 828.467,548.671 833.467,548.171 838.5,548C 841.779,547.027 844.779,545.527 847.5,543.5C 849.687,541.15 852.187,539.15 855,537.5C 865.574,538.191 875.408,535.691 884.5,530C 887.902,526.281 888.402,522.114 886,517.5C 882.568,514.546 878.734,512.213 874.5,510.5C 872.473,509.307 870.973,507.64 870,505.5C 867.893,504.409 865.393,504.409 862.5,505.5C 859.325,505.16 857.159,503.493 856,500.5C 854.031,494.987 852.697,489.321 852,483.5C 851.099,480.929 849.766,478.596 848,476.5C 846.855,469.732 844.522,463.399 841,457.5C 839.292,455.457 837.292,453.79 835,452.5C 833.872,450.655 833.372,448.655 833.5,446.5C 834.212,444.072 835.212,441.739 836.5,439.5C 836.376,438.893 836.043,438.56 835.5,438.5C 833.353,436.263 831.02,434.263 828.5,432.5C 828.196,431.85 827.863,431.183 827.5,430.5C 824.553,429.679 821.553,429.179 818.5,429C 818.833,428.667 819.167,428.333 819.5,428C 816.054,427.296 816.054,425.963 819.5,424C 818.145,419.614 816.478,415.281 814.5,411C 814.735,410.127 815.069,409.293 815.5,408.5C 819.167,407.833 822.833,407.167 826.5,406.5C 829.037,404.733 831.703,403.233 834.5,402C 836.885,400.002 838.218,397.835 838.5,395.5C 835.972,394.483 835.972,393.316 838.5,392C 837.333,390.833 836.167,389.667 835,388.5C 833.938,385.659 832.604,382.992 831,380.5C 829.334,381.34 829.167,380.84 830.5,379C 829.167,378 827.833,377 826.5,376C 827.516,375.481 828.182,374.647 828.5,373.5C 827.181,369.906 826.681,366.239 827,362.5C 828.946,359.861 829.946,356.861 830,353.5C 830.333,354.833 830.667,356.167 831,357.5C 831.167,356.5 831.333,355.5 831.5,354.5C 830.241,350.951 829.407,347.284 829,343.5C 828.692,344.308 828.192,344.975 827.5,345.5C 826.239,342.275 824.906,339.108 823.5,336C 824.078,334.189 824.578,332.355 825,330.5C 825.333,330.833 825.667,331.167 826,331.5C 826.308,330.692 826.808,330.025 827.5,329.5C 827.88,331.021 828.046,332.687 828,334.5C 828.333,334.833 828.667,335.167 829,335.5C 829.308,334.692 829.808,334.025 830.5,333.5C 831.039,336.166 832.372,338.333 834.5,340C 838.416,340.022 842.249,340.855 846,342.5C 846.333,342.167 846.667,341.833 847,341.5C 847.689,342.357 848.522,343.023 849.5,343.5C 850.132,346.102 851.132,348.436 852.5,350.5 Z" />
  </g>
  <g>
    <path style="opacity:0.976"
      d="M 1486.5,319.5 C 1489.26,319.963 1490.92,321.63 1491.5,324.5C 1489.58,325.065 1487.91,326.065 1486.5,327.5C 1484.88,328.841 1483.88,330.674 1483.5,333C 1479.76,333.319 1476.09,332.819 1472.5,331.5C 1471.58,331.543 1470.92,331.876 1470.5,332.5C 1468.82,331.817 1468.16,330.483 1468.5,328.5C 1469.71,327.425 1471.21,326.759 1473,326.5C 1478.3,328.399 1482.13,326.733 1484.5,321.5C 1485.83,321.5 1486.5,320.833 1486.5,319.5 Z" />
  </g>
  <g>
    <path style="opacity:1" fill="#f4f4f4"
      d="M 157.5,353.5 C 155.931,356.582 156.265,359.415 158.5,362C 167.316,368.129 176.983,372.462 187.5,375C 190.458,377.128 191.124,379.794 189.5,383C 184.287,383.253 179.787,385.086 176,388.5C 172.279,393.275 169.612,398.609 168,404.5C 167.474,417.832 166.974,431.166 166.5,444.5C 166.333,454.656 167.333,464.656 169.5,474.5C 168.323,483.231 166.823,491.897 165,500.5C 163.752,503.579 161.919,506.246 159.5,508.5C 157.199,515.1 154.365,521.434 151,527.5C 146.568,532.466 141.068,535.466 134.5,536.5C 133.504,536.414 132.671,536.748 132,537.5C 132.435,542.542 130.268,545.042 125.5,545C 125.833,544.667 126.167,544.333 126.5,544C 125.572,543.612 124.905,542.945 124.5,542C 125.894,537.012 124.56,532.845 120.5,529.5C 121.641,528.575 121.641,527.741 120.5,527C 123.206,524.629 125.539,521.963 127.5,519C 127.043,518.586 126.709,518.086 126.5,517.5C 130.002,506.499 128.169,497.166 121,489.5C 120.667,489.833 120.333,490.167 120,490.5C 119.581,489.328 118.915,488.328 118,487.5C 116.887,488.711 115.72,488.711 114.5,487.5C 104.19,488.54 94.1898,489.873 84.5,491.5C 84.1667,491.5 83.8333,491.5 83.5,491.5C 78.8496,491.758 74.8496,491.091 71.5,489.5C 73.1933,487.973 75.0266,486.64 77,485.5C 77.3589,482.456 78.0255,482.122 79,484.5C 79.6667,480.5 79.6667,476.5 79,472.5C 77.4448,469.887 77.6115,467.221 79.5,464.5C 89.4206,462.076 94.254,455.743 94,445.5C 94.6667,442.833 95.3333,442.833 96,445.5C 96.2602,443.382 97.2602,441.716 99,440.5C 99.8891,437.313 100.722,434.147 101.5,431C 99.8446,429.556 99.178,427.722 99.5,425.5C 97.8762,425.64 96.7096,424.973 96,423.5C 95.6667,423.833 95.3333,424.167 95,424.5C 94.3088,421.734 92.8088,421.067 90.5,422.5C 87.5386,421.817 87.2053,420.984 89.5,420C 87.7818,419.654 86.1151,419.154 84.5,418.5C 81.227,419.585 77.8936,419.752 74.5,419C 73.3044,418.346 73.3044,417.846 74.5,417.5C 78.1436,418.025 77.8103,417.358 73.5,415.5C 68.1985,416.302 62.8652,416.468 57.5,416C 55.4098,416.669 53.7432,417.836 52.5,419.5C 48.9264,418.976 45.4264,418.976 42,419.5C 39.0885,417.243 35.9218,416.577 32.5,417.5C 32.7036,416.471 32.2036,415.471 31,414.5C 30.5756,418.19 29.7423,418.357 28.5,415C 33.3333,412.833 36.8333,409.333 39,404.5C 37.9905,400.434 37.4905,396.434 37.5,392.5C 36.5,392.5 35.5,392.5 34.5,392.5C 34.4959,390.158 33.6625,388.158 32,386.5C 30.7695,381.617 30.6028,376.784 31.5,372C 38.3528,369.499 44.0195,371.166 48.5,377C 52.7305,378.29 57.0638,378.79 61.5,378.5C 61.5,377.5 61.5,376.5 61.5,375.5C 66.6674,375.91 71.6674,375.243 76.5,373.5C 78.2723,370.567 79.2723,367.4 79.5,364C 79.7163,360.869 78.3829,358.869 75.5,358C 71.354,357.473 67.5207,356.306 64,354.5C 58.3353,355.417 54.1686,353.25 51.5,348C 52.1667,345.667 52.8333,343.333 53.5,341C 52.6232,336.526 52.6232,332.026 53.5,327.5C 57.2283,327.156 60.8949,326.49 64.5,325.5C 67.86,326.452 70.86,327.952 73.5,330C 78.1976,331.788 82.8643,331.788 87.5,330C 91.1705,326.18 95.1705,322.846 99.5,320C 108.302,318.24 116.969,318.907 125.5,322C 126.207,324.543 127.54,326.709 129.5,328.5C 129.291,329.086 128.957,329.586 128.5,330C 132.312,336.96 138.312,339.96 146.5,339C 147.916,341.265 149.916,342.431 152.5,342.5C 152.838,344.854 153.338,347.187 154,349.5C 154.333,349.167 154.667,348.833 155,348.5C 155.374,350.491 156.207,352.158 157.5,353.5 Z" />
  </g>
  <g>
    <path style="opacity:1" fill="#f3f3f3"
      d="M 478.5,322.5 C 478.202,325.265 477.202,327.765 475.5,330C 470.252,332.144 464.919,333.977 459.5,335.5C 457.224,335.756 456.057,337.09 456,339.5C 453.827,336.723 453.327,336.89 454.5,340C 453.552,340.483 452.552,340.649 451.5,340.5C 450.592,338.109 450.426,335.776 451,333.5C 448.667,331.5 446.333,329.5 444,327.5C 441.351,327.745 438.518,328.411 435.5,329.5C 434.446,329.32 433.446,328.987 432.5,328.5C 431.667,329.5 430.833,330.5 430,331.5C 428.852,327.866 428.352,324.199 428.5,320.5C 428.437,318.519 429.104,316.852 430.5,315.5C 432.664,314.586 434.664,313.419 436.5,312C 438.764,311.764 440.931,311.264 443,310.5C 449.502,316.289 456.335,316.789 463.5,312C 463.167,310.333 462.833,308.667 462.5,307C 466.555,304.655 469.388,305.821 471,310.5C 471.333,310.167 471.667,309.833 472,309.5C 472.953,311.455 474.287,313.122 476,314.5C 477.936,316.808 478.769,319.475 478.5,322.5 Z" />
  </g>
  <g>
    <path style="opacity:1" fill="#f4f4f4"
      d="M 340.5,346.5 C 335.354,347.4 330.354,348.9 325.5,351C 323.967,355.705 322.8,360.538 322,365.5C 318.175,368.945 313.675,370.945 308.5,371.5C 305.417,372.066 302.417,372.066 299.5,371.5C 298.494,371.938 298.494,372.604 299.5,373.5C 298.675,374.386 297.675,374.719 296.5,374.5C 291.616,385.897 293.282,396.23 301.5,405.5C 302.689,406.429 304.022,406.762 305.5,406.5C 305.5,407.5 305.5,408.5 305.5,409.5C 309.811,411.321 314.145,413.154 318.5,415C 329.111,419.897 339.444,419.563 349.5,414C 351.333,413.833 353.167,413.667 355,413.5C 357.302,413.6 359.302,414.267 361,415.5C 361.414,415.043 361.914,414.709 362.5,414.5C 363.912,415.806 365.579,416.64 367.5,417C 367.538,420.04 368.205,423.207 369.5,426.5C 369.471,428.029 368.804,429.196 367.5,430C 368.167,430.333 368.833,430.667 369.5,431C 368.446,432.388 368.28,433.888 369,435.5C 369.914,434.346 370.747,434.513 371.5,436C 370.167,437.84 370.334,438.34 372,437.5C 372.833,438.5 373.667,439.5 374.5,440.5C 377.316,441.018 379.982,441.851 382.5,443C 388.775,443.605 395.108,444.272 401.5,445C 402.126,445.75 402.626,446.584 403,447.5C 403.333,447.167 403.667,446.833 404,446.5C 404.903,450.132 406.403,453.466 408.5,456.5C 411.203,458.706 413.703,461.039 416,463.5C 418.251,462.962 420.418,462.795 422.5,463C 422.167,463.333 421.833,463.667 421.5,464C 424.082,468.474 427.415,471.307 431.5,472.5C 432.434,473.568 432.768,474.901 432.5,476.5C 432.334,481.511 432.501,486.511 433,491.5C 435.758,494.726 439.258,496.56 443.5,497C 451.46,496.343 459.46,495.677 467.5,495C 470.5,493 473.5,491 476.5,489C 478.473,488.505 480.473,488.338 482.5,488.5C 484.533,494.374 486.199,500.374 487.5,506.5C 488.741,510.51 488.741,514.51 487.5,518.5C 487.667,519.167 487.833,519.833 488,520.5C 488.333,519.5 488.667,518.5 489,517.5C 489.543,524.763 489.043,532.096 487.5,539.5C 487.389,540.117 487.056,540.617 486.5,541C 481.032,541.709 475.866,543.209 471,545.5C 469.373,545.375 467.873,544.875 466.5,544C 464.615,541.778 462.449,539.944 460,538.5C 454.915,540.043 450.248,542.376 446,545.5C 445.667,555.167 445.333,564.833 445,574.5C 443,575.833 441,575.833 439,574.5C 435.154,566.613 432.821,558.28 432,549.5C 430.122,546.77 427.622,545.103 424.5,544.5C 419.63,545.602 415.297,547.768 411.5,551C 403.696,558.958 396.363,567.291 389.5,576C 384.9,577.583 383.066,576.083 384,571.5C 389.573,565.008 388.073,562.508 379.5,564C 376.612,567.222 374.112,570.722 372,574.5C 370.561,576.448 368.728,577.781 366.5,578.5C 362.307,577.443 358.14,576.443 354,575.5C 348.981,576.598 344.481,578.598 340.5,581.5C 338.701,581.423 337.034,580.923 335.5,580C 333.399,577.23 330.732,575.23 327.5,574C 322.833,574 318.167,574 313.5,574C 311.557,572.445 309.39,571.278 307,570.5C 300.704,573.21 294.204,575.21 287.5,576.5C 283.937,574.683 279.937,573.517 275.5,573C 275.833,572.667 276.167,572.333 276.5,572C 273.734,571.309 273.067,569.809 274.5,567.5C 272.859,560.536 269.025,555.203 263,551.5C 262.586,551.957 262.086,552.291 261.5,552.5C 260.708,550.535 260.041,548.535 259.5,546.5C 261.581,539.503 260.415,533.17 256,527.5C 255.833,526.167 255.667,524.833 255.5,523.5C 258.739,512.568 260.739,501.402 261.5,490C 260.026,486.356 259.026,482.523 258.5,478.5C 261.859,467.451 260.192,457.285 253.5,448C 254.517,446.951 254.684,445.784 254,444.5C 253.667,445.167 253.333,445.833 253,446.5C 251.694,443.536 249.694,441.203 247,439.5C 246.107,440.081 245.107,440.415 244,440.5C 239.974,438.827 235.974,437.16 232,435.5C 230.951,436.517 229.784,436.684 228.5,436C 228.833,435.667 229.167,435.333 229.5,435C 226.377,432.696 224.877,429.529 225,425.5C 224.5,424.333 223.667,423.5 222.5,423C 223.451,422.282 223.617,421.449 223,420.5C 221.406,419.284 219.906,417.951 218.5,416.5C 217.158,417.902 216.324,417.569 216,415.5C 213.959,416.423 211.792,416.756 209.5,416.5C 209.49,407.211 209.823,397.878 210.5,388.5C 212.057,385.912 213.057,383.079 213.5,380C 213.091,374.324 211.758,368.657 209.5,363C 209.542,361.033 210.042,359.199 211,357.5C 212.333,360.167 213.667,360.167 215,357.5C 216.167,358.667 217.333,359.833 218.5,361C 224.676,362.451 230.176,361.285 235,357.5C 235.414,357.957 235.914,358.291 236.5,358.5C 243.626,356.107 248.959,351.607 252.5,345C 255.86,345.529 259.193,345.029 262.5,343.5C 265.23,341.032 267.73,338.366 270,335.5C 275.985,336.96 281.652,336.293 287,333.5C 287.805,335.901 288.638,335.734 289.5,333C 292.536,332.291 295.369,331.124 298,329.5C 299.972,324.944 301.639,320.278 303,315.5C 305.19,313.612 307.023,311.445 308.5,309C 312.999,306.633 316.832,307.467 320,311.5C 320.333,311.167 320.667,310.833 321,310.5C 323.703,313.538 326.703,316.205 330,318.5C 329.645,321.822 329.478,324.988 329.5,328C 330.289,330.365 331.456,332.532 333,334.5C 335.215,334.267 337.382,334.934 339.5,336.5C 340.772,336.43 341.938,336.097 343,335.5C 344.147,337.731 345.147,340.065 346,342.5C 347.067,343.191 348.234,343.691 349.5,344C 346.893,346.105 343.893,346.938 340.5,346.5 Z" />
  </g>
  <g>
    <path style="opacity:1" fill="#c4c4c4"
      d="M 440.5,519.5 C 441.5,519.5 442.5,519.5 443.5,519.5C 444.041,523.295 442.375,525.295 438.5,525.5C 436.734,525.566 435.734,524.732 435.5,523C 436.921,521.377 438.588,520.21 440.5,519.5 Z" />
  </g>
  <g>
    <path style="opacity:1" fill="#f2f2f2"
      d="M 1540.5,311.5 C 1540.09,314.553 1539.42,317.553 1538.5,320.5C 1544.15,328.717 1544.65,337.384 1540,346.5C 1539.18,349.227 1539.35,351.894 1540.5,354.5C 1546.83,357.667 1553.17,360.833 1559.5,364C 1567.78,373.152 1571.94,383.985 1572,396.5C 1576.56,401.921 1577.56,407.921 1575,414.5C 1573.89,415.305 1572.72,415.972 1571.5,416.5C 1569.97,416.427 1568.97,417.094 1568.5,418.5C 1565.63,419.526 1563.13,421.192 1561,423.5C 1558.46,426.749 1556.29,430.249 1554.5,434C 1548.13,434.544 1542.13,433.378 1536.5,430.5C 1536.16,429.662 1535.49,429.328 1534.5,429.5C 1531.3,422.801 1526.3,417.967 1519.5,415C 1517.41,409.907 1513.74,406.574 1508.5,405C 1506.62,402.749 1505.12,400.249 1504,397.5C 1503.18,396.177 1502.02,395.511 1500.5,395.5C 1494.93,391.439 1489.76,386.772 1485,381.5C 1483.69,371.966 1481.86,362.633 1479.5,353.5C 1479.5,353.167 1479.5,352.833 1479.5,352.5C 1476.51,345.863 1473.51,339.196 1470.5,332.5C 1470.92,331.876 1471.58,331.543 1472.5,331.5C 1476.09,332.819 1479.76,333.319 1483.5,333C 1483.88,330.674 1484.88,328.841 1486.5,327.5C 1487.58,327.461 1488.58,327.127 1489.5,326.5C 1490.91,327.806 1492.58,328.64 1494.5,329C 1502.17,329.667 1509.83,329.667 1517.5,329C 1518.33,328.167 1519.17,327.333 1520,326.5C 1517.69,317.8 1519.53,310.133 1525.5,303.5C 1529.2,300.638 1533.03,297.972 1537,295.5C 1540.38,300.363 1541.55,305.696 1540.5,311.5 Z" />
  </g>
  <g>
    <path style="opacity:1" fill="#f3f3f3"
      d="M 686.5,286.5 C 687.339,287.641 688.006,288.974 688.5,290.5C 686.586,294.323 685.253,298.323 684.5,302.5C 683.833,302.5 683.5,302.833 683.5,303.5C 683.167,304.167 682.833,304.833 682.5,305.5C 684.498,311.962 685.498,318.462 685.5,325C 680.246,327.687 674.746,328.187 669,326.5C 663.632,326.978 658.466,327.978 653.5,329.5C 652.504,329.414 651.671,329.748 651,330.5C 649.263,334.542 647.43,338.542 645.5,342.5C 643.926,343.631 642.259,343.798 640.5,343C 638.407,338.224 636.407,333.391 634.5,328.5C 631.567,326.538 628.567,324.871 625.5,323.5C 625.144,322.13 624.31,321.13 623,320.5C 619.539,319.782 616.039,319.282 612.5,319C 611.09,318.632 610.09,317.799 609.5,316.5C 612.354,313.812 615.354,311.312 618.5,309C 617.521,307.221 617.854,305.555 619.5,304C 619.052,295.251 619.052,286.417 619.5,277.5C 618.5,277.5 617.5,277.5 616.5,277.5C 616.529,274.227 615.196,273.56 612.5,275.5C 609.885,275.316 607.719,274.316 606,272.5C 605.667,272.833 605.333,273.167 605,273.5C 602.324,270.61 600.157,267.444 598.5,264C 599.035,260.53 599.035,257.364 598.5,254.5C 596.443,252.731 594.61,250.731 593,248.5C 591.381,247.917 589.548,247.917 587.5,248.5C 586.145,246.071 584.478,244.738 582.5,244.5C 583.711,243.28 583.711,242.113 582.5,241C 583.618,239.926 584.618,238.76 585.5,237.5C 589.745,237.542 594.079,237.042 598.5,236C 602.649,235.105 605.316,233.105 606.5,230C 609.17,227.522 611.504,224.689 613.5,221.5C 614.192,222.025 614.692,222.692 615,223.5C 618.672,221.256 622.506,221.09 626.5,223C 628.303,223.637 629.636,224.803 630.5,226.5C 628.893,232.742 629.393,239.075 632,245.5C 632.414,245.043 632.914,244.709 633.5,244.5C 634.711,245.274 634.711,246.107 633.5,247C 634.253,248.487 635.086,248.654 636,247.5C 639.418,250.233 639.251,251.566 635.5,251.5C 635.931,252.293 636.265,253.127 636.5,254C 634.629,256.237 633.129,258.737 632,261.5C 631.405,262.899 631.572,264.232 632.5,265.5C 640.167,266.733 647.833,266.733 655.5,265.5C 658.5,266 661.5,266.5 664.5,267C 665.167,269.333 665.833,271.667 666.5,274C 669.525,274.133 672.192,275.133 674.5,277C 676.81,277.497 679.143,277.663 681.5,277.5C 681.023,281.69 682.689,284.69 686.5,286.5 Z" />
  </g>
</svg>